<?xml version="1.0" encoding="UTF-8" standalone="no"?>
<svg
   xmlns:dc="http://purl.org/dc/elements/1.1/"
   xmlns:cc="http://creativecommons.org/ns#"
   xmlns:rdf="http://www.w3.org/1999/02/22-rdf-syntax-ns#"
   xmlns:svg="http://www.w3.org/2000/svg"
   xmlns="http://www.w3.org/2000/svg"
   viewBox="0 0 365.17334 267.79199"
   height="267.79199"
   width="365.17334"
   xml:space="preserve"
   id="svg2"
   version="1.1"><metadata
     id="metadata8"><rdf:RDF><cc:Work
         rdf:about=""><dc:format>image/svg+xml</dc:format><dc:type
           rdf:resource="http://purl.org/dc/dcmitype/StillImage" /></cc:Work></rdf:RDF></metadata><defs
     id="defs6"><clipPath
       id="clipPath18"
       clipPathUnits="userSpaceOnUse"><path
         id="path16"
         d="M 0,200.844 H 273.88 V 0 H 0 Z" /></clipPath><clipPath
       id="clipPath42"
       clipPathUnits="userSpaceOnUse"><path
         id="path40"
         d="m 93.002,128.013 16.758,5.012 c -30.106,3.482 -8.479,49.823 -32.277,53.198 v 0 c -0.892,0.126 -1.728,0.187 -2.515,0.187 v 0 c -21.851,-0.003 -3.482,-47.411 18.034,-58.397" /></clipPath><clipPath
       id="clipPath50"
       clipPathUnits="userSpaceOnUse"><path
         id="path48"
         d="M 63.0527,200.844 H 114.843 V 121.856 H 63.0527 Z" /></clipPath><clipPath
       id="clipPath78"
       clipPathUnits="userSpaceOnUse"><path
         id="path76"
         d="M 0,200.844 H 273.88 V 0 H 0 Z" /></clipPath><clipPath
       id="clipPath90"
       clipPathUnits="userSpaceOnUse"><path
         id="path88"
         d="m 93.332,130.043 10.065,-4.408 c -13.01,13.902 16.183,27.319 6.152,38.607 v 0 c -1.679,1.889 -3.372,2.719 -5.013,2.719 v 0 c -8.942,0 -16.321,-24.656 -11.204,-36.918" /></clipPath><clipPath
       id="clipPath98"
       clipPathUnits="userSpaceOnUse"><path
         id="path96"
         d="M 90.6296,166.437 H 121.204 V 118.333 H 90.6296 Z" /></clipPath><clipPath
       id="clipPath126"
       clipPathUnits="userSpaceOnUse"><path
         id="path124"
         d="M 0,200.844 H 273.88 V 0 H 0 Z" /></clipPath><clipPath
       id="clipPath150"
       clipPathUnits="userSpaceOnUse"><path
         id="path148"
         d="M 87.2792,122.242 H 238.848 V 40.2421 H 87.2792 Z" /></clipPath><clipPath
       id="clipPath170"
       clipPathUnits="userSpaceOnUse"><path
         id="path168"
         d="M 97.0058,111.501 H 229.121 V 71.8925 H 97.0058 Z" /></clipPath><clipPath
       id="clipPath186"
       clipPathUnits="userSpaceOnUse"><path
         id="path184"
         d="M 97.0058,69.1083 H 196.387 V 44.7841 H 97.0058 Z" /></clipPath><clipPath
       id="clipPath202"
       clipPathUnits="userSpaceOnUse"><path
         id="path200"
         d="m 199.64,69.1083 h 29.478 V 44.7841 H 199.64 Z" /></clipPath><clipPath
       id="clipPath230"
       clipPathUnits="userSpaceOnUse"><path
         id="path228"
         d="m 160.395,138.159 h 5.333 v -5.334 h -5.333 z" /></clipPath><clipPath
       id="clipPath246"
       clipPathUnits="userSpaceOnUse"><path
         id="path244"
         d="m 199.015,1.6221 h 46.25 V 0 h -46.25 z" /></clipPath><clipPath
       id="clipPath338"
       clipPathUnits="userSpaceOnUse"><path
         id="path336"
         d="M 28.8479,17.5968 H 80.0087 V 15.9747 H 28.8479 Z" /></clipPath><clipPath
       id="clipPath426"
       clipPathUnits="userSpaceOnUse"><path
         id="path424"
         d="M 99.9697,100.252 H 147.412 V 60.732 H 99.9697 Z" /></clipPath><clipPath
       id="clipPath458"
       clipPathUnits="userSpaceOnUse"><path
         id="path456"
         d="m 165.87,108.656 h 29.419 V 84.1505 H 165.87 Z" /></clipPath></defs><g
     transform="matrix(1.3333333,0,0,-1.3333333,0,267.792)"
     id="g10"><g
       id="g12"><g
         clip-path="url(#clipPath18)"
         id="g14"><g
           transform="translate(256.2289,170.4625)"
           id="g20"><path
             id="path22"
             style="fill:#f9f9fc;fill-opacity:1;fill-rule:nonzero;stroke:none"
             d="m 0,0 c -0.007,0.003 -0.014,0.006 -0.021,0.009 -6.314,7.999 -16.088,13.14 -27.071,13.14 -13.656,0 -25.457,-7.941 -31.039,-19.458 h -0.002 c -2.881,1.138 -6.017,1.753 -9.3,1.753 -12.975,0 -23.703,-9.659 -25.386,-22.181 -0.154,-1.128 -0.231,-2.274 -0.231,-3.445 0,-14.146 11.471,-25.618 25.617,-25.618 h 40.23 c 0.037,0 0.074,-0.002 0.111,-0.002 0.037,0 0.074,0.002 0.112,0.002 h 15.569 c 5.872,0 11.334,1.744 15.899,4.737 7.923,5.179 13.163,14.146 13.163,24.326 C 17.651,-14.745 10.377,-4.437 0,0" /></g><g
           transform="translate(58.5853,180.9312)"
           id="g24"><path
             id="path26"
             style="fill:#f9f9fc;fill-opacity:1;fill-rule:nonzero;stroke:none"
             d="m 0,0 c -0.003,0 -0.005,0 -0.008,0.001 -1.916,2.047 -4.288,3.658 -6.957,4.673 -4.096,5.465 -10.625,9.002 -17.979,9.002 -8.601,0 -16.068,-4.837 -19.841,-11.937 h -0.001 c -7.835,-1.333 -13.799,-8.157 -13.799,-16.368 0,-9.173 7.434,-16.607 16.607,-16.607 h 16.97 c 0.021,0 0.042,-0.002 0.064,-0.002 0.021,0 0.042,0.002 0.063,0.002 h 11.258 c 0.021,0 0.042,-0.002 0.063,-0.002 0.022,0 0.042,0.002 0.064,0.002 h 12.637 c 8.63,0 15.63,6.994 15.63,15.631 0,0.327 -0.01,0.654 -0.03,0.976 C 14.253,-6.735 7.908,-0.425 0,0" /></g><g
           transform="translate(255.2318,44.2349)"
           id="g28"><path
             id="path30"
             style="fill:#1b1464;fill-opacity:1;fill-rule:nonzero;stroke:none"
             d="m 0,0 c -4.711,-0.001 -9.42,1.792 -13.006,5.379 l 7.777,7.777 c 2.883,-2.883 7.575,-2.883 10.458,0 1.396,1.398 2.166,3.254 2.166,5.229 0,1.974 -0.77,3.831 -2.166,5.227 l 7.777,7.78 C 16.48,27.917 18.395,23.298 18.395,18.385 18.395,13.472 16.48,8.853 13.006,5.378 9.421,1.793 4.71,0 0,0" /></g><g
           transform="translate(93.0023,128.0132)"
           id="g32"><path
             id="path34"
             style="fill:#1b1464;fill-opacity:1;fill-rule:nonzero;stroke:none"
             d="M 0,0 C -22.29,11.381 -41.205,61.853 -15.52,58.209 8.278,54.834 -13.348,8.494 16.758,5.012 Z" /></g></g></g><g
       id="g36"><g
         clip-path="url(#clipPath42)"
         id="g38"><g
           id="g44"><g
             id="g46" /><g
             id="g70"><g
               style="opacity:0.30000299"
               id="g68"
               clip-path="url(#clipPath50)"><g
                 id="g54"
                 transform="translate(114.557,121.856)"><path
                   id="path52"
                   style="fill:#1b1464;fill-opacity:1;fill-rule:nonzero;stroke:none"
                   d="m 0,0 c -0.251,0.136 -25.218,13.792 -34.131,34.533 -4.459,10.378 -5.708,18.008 -4.05,24.739 1.685,6.84 6.394,12.829 12.946,19.715 l 0.437,-0.415 C -38.829,63.824 -42.265,54.99 -33.577,34.771 -24.748,14.225 0.037,0.665 0.286,0.531 Z" /></g><g
                 id="g58"
                 transform="translate(76.3041,170.0738)"><path
                   id="path56"
                   style="fill:#1b1464;fill-opacity:1;fill-rule:nonzero;stroke:none"
                   d="m 0,0 c -10.558,2.192 -13.146,7.856 -13.251,8.097 l 0.552,0.242 C -12.675,8.282 -10.104,2.715 0.123,0.59 Z" /></g><g
                 id="g62"
                 transform="translate(81.2367,155.2574)"><path
                   id="path60"
                   style="fill:#1b1464;fill-opacity:1;fill-rule:nonzero;stroke:none"
                   d="m 0,0 -0.208,0.566 c 5.981,2.19 10.342,9.847 10.386,9.924 l 0.525,-0.295 C 10.521,9.872 6.188,2.266 0,0" /></g><g
                 id="g66"
                 transform="translate(87.0668,145.4214)"><path
                   id="path64"
                   style="fill:#1b1464;fill-opacity:1;fill-rule:nonzero;stroke:none"
                   d="m 0,0 c -18.363,-0.065 -21.338,8.558 -21.456,8.924 l 0.575,0.184 -0.287,-0.091 0.286,0.091 c 0.028,-0.085 3.001,-8.568 20.88,-8.505 z" /></g></g></g></g></g></g><g
       id="g72"><g
         clip-path="url(#clipPath78)"
         id="g74"><g
           transform="translate(93.3314,130.0425)"
           id="g80"><path
             id="path82"
             style="fill:#1b1464;fill-opacity:1;fill-rule:nonzero;stroke:none"
             d="M 0,0 C -6.056,14.512 5.391,46.383 16.218,34.199 26.249,22.911 -2.944,9.494 10.066,-4.408 Z" /></g></g></g><g
       id="g84"><g
         clip-path="url(#clipPath90)"
         id="g86"><g
           id="g92"><g
             id="g94" /><g
             id="g118"><g
               style="opacity:0.30000299"
               id="g116"
               clip-path="url(#clipPath98)"><g
                 id="g102"
                 transform="translate(101.1576,118.3336)"><path
                   id="path100"
                   style="fill:#1b1464;fill-opacity:1;fill-rule:nonzero;stroke:none"
                   d="m 0,0 c -0.065,0.167 -6.479,16.856 -2.321,30.417 2.08,6.784 4.582,10.948 8.112,13.5 3.587,2.593 8.277,3.549 14.215,4.187 l 0.041,-0.377 C 7.33,46.361 2.094,43.524 -1.959,30.306 -6.078,16.873 0.288,0.304 0.354,0.138 Z" /></g><g
                 id="g106"
                 transform="translate(102.4222,156.983)"><path
                   id="path104"
                   style="fill:#1b1464;fill-opacity:1;fill-rule:nonzero;stroke:none"
                   d="M 0,0 C -4.168,5.341 -3.107,9.106 -3.06,9.264 L -2.696,9.155 C -2.708,9.119 -3.738,5.406 0.299,0.232 Z" /></g><g
                 id="g110"
                 transform="translate(98.765,147.8785)"><path
                   id="path108"
                   style="fill:#1b1464;fill-opacity:1;fill-rule:nonzero;stroke:none"
                   d="M 0,0 0.131,0.355 C 3.887,-1.025 9.087,0.872 9.14,0.891 L 9.271,0.536 C 9.053,0.455 3.886,-1.429 0,0" /></g><g
                 id="g114"
                 transform="translate(97.5609,140.7964)"><path
                   id="path112"
                   style="fill:#1b1464;fill-opacity:1;fill-rule:nonzero;stroke:none"
                   d="m 0,0 c -8.825,7.431 -6.747,12.771 -6.654,12.995 l 0.35,-0.145 -0.175,0.072 0.175,-0.072 C -6.325,12.798 -8.349,7.524 0.244,0.289 Z" /></g></g></g></g></g></g><g
       id="g120"><g
         clip-path="url(#clipPath126)"
         id="g122"><g
           transform="translate(255.514,20.8765)"
           id="g128"><path
             id="path130"
             style="fill:#1b1464;fill-opacity:1;fill-rule:nonzero;stroke:none"
             d="m 0,0 c -0.736,-1.917 -2.592,-3.279 -4.771,-3.279 h -175.36 c -2.178,0 -4.04,1.362 -4.776,3.279 -0.334,0.882 0.323,1.825 1.265,1.825 H -1.266 C -0.322,1.825 0.335,0.882 0,0" /></g><g
           transform="translate(246.1146,22.7007)"
           id="g132"><path
             id="path134"
             style="fill:#c2efff;fill-opacity:1;fill-rule:nonzero;stroke:none"
             d="m 0,0 h -166.105 c -5.377,0 -9.736,4.358 -9.736,9.735 v 98.569 c 0,5.377 4.359,9.735 9.736,9.735 H 0 c 5.376,0 9.735,-4.358 9.735,-9.735 V 9.735 C 9.735,4.358 5.376,0 0,0" /></g><g
           transform="translate(80.0092,35.276)"
           id="g136"><path
             id="path138"
             style="fill:#7ac9e5;fill-opacity:1;fill-rule:nonzero;stroke:none"
             d="m 0,0 v 92.889 c 0,1.568 1.271,2.84 2.839,2.84 h 160.427 c 1.568,0 2.839,-1.272 2.839,-2.84 V 0 c 0,-1.568 -1.271,-2.84 -2.839,-2.84 H 2.839 C 1.271,-2.84 0,-1.568 0,0" /></g><g
           transform="translate(179.6957,22.7017)"
           id="g140"><path
             id="path142"
             style="fill:#ffffff;fill-opacity:1;fill-rule:nonzero;stroke:none"
             d="m 0,0 v -0.827 c 0,-0.949 -0.779,-1.729 -1.729,-1.729 h -29.813 c -0.949,0 -1.722,0.78 -1.722,1.729 l 0,0.827 z" /></g><g
           id="g144"><g
             id="g146" /><g
             id="g158"><g
               style="opacity:0.35000604"
               id="g156"
               clip-path="url(#clipPath150)"><g
                 id="g154"
                 transform="translate(238.848,122.2428)"><path
                   id="path152"
                   style="fill:#ffffff;fill-opacity:1;fill-rule:nonzero;stroke:none"
                   d="m 0,0 h -151.568 v -78.396 c 0,-1.991 1.613,-3.605 3.603,-3.605 H -3.604 c 1.991,0 3.604,1.614 3.604,3.605 z m -0.75,-0.75 v -77.646 c 0,-1.575 -1.28,-2.855 -2.854,-2.855 h -144.361 c -1.573,0 -2.853,1.28 -2.853,2.855 V -0.75 H -0.75" /></g></g></g></g><g
           transform="translate(237.4886,119.732)"
           id="g160"><path
             id="path162"
             style="fill:#c2efff;fill-opacity:1;fill-rule:nonzero;stroke:none"
             d="m 0,0 h -148.851 c -0.75,0 -1.358,0.609 -1.358,1.359 v 2.302 c 0,0.75 0.608,1.36 1.358,1.36 H 0 c 0.751,0 1.359,-0.61 1.359,-1.36 V 1.359 C 1.359,0.609 0.751,0 0,0" /></g><g
           id="g164"><g
             id="g166" /><g
             id="g178"><g
               style="opacity:0.35000604"
               id="g176"
               clip-path="url(#clipPath170)"><g
                 id="g174"
                 transform="translate(100.39,110.7515)"><path
                   id="path172"
                   style="fill:#ffffff;fill-opacity:1;fill-rule:nonzero;stroke:none"
                   d="m 0,0 c -1.452,0 -2.634,-1.182 -2.634,-2.634 v -32.842 c 0,-1.452 1.182,-2.633 2.634,-2.633 h 125.348 c 1.452,0 2.633,1.181 2.633,2.633 V -2.634 C 127.981,-1.182 126.8,0 125.348,0 Z M 125.348,-38.859 H 0 c -1.866,0 -3.384,1.517 -3.384,3.383 v 32.842 c 0,1.865 1.518,3.384 3.384,3.384 h 125.348 c 1.866,0 3.383,-1.519 3.383,-3.384 v -32.842 c 0,-1.866 -1.517,-3.383 -3.383,-3.383" /></g></g></g></g><g
           id="g180"><g
             id="g182" /><g
             id="g194"><g
               style="opacity:0.35000604"
               id="g192"
               clip-path="url(#clipPath186)"><g
                 id="g190"
                 transform="translate(100.39,68.358)"><path
                   id="path188"
                   style="fill:#ffffff;fill-opacity:1;fill-rule:nonzero;stroke:none"
                   d="M 0,0 C -1.452,0 -2.634,-1.182 -2.634,-2.634 V -20.19 c 0,-1.453 1.182,-2.634 2.634,-2.634 h 92.613 c 1.452,0 2.634,1.181 2.634,2.634 V -2.634 C 95.247,-1.182 94.065,0 92.613,0 Z M 92.613,-23.574 H 0 c -1.866,0 -3.384,1.517 -3.384,3.384 v 17.556 c 0,1.866 1.518,3.384 3.384,3.384 h 92.613 c 1.866,0 3.384,-1.518 3.384,-3.384 V -20.19 c 0,-1.867 -1.518,-3.384 -3.384,-3.384" /></g></g></g></g><g
           id="g196"><g
             id="g198" /><g
             id="g210"><g
               style="opacity:0.35000604"
               id="g208"
               clip-path="url(#clipPath202)"><g
                 id="g206"
                 transform="translate(203.0238,68.358)"><path
                   id="path204"
                   style="fill:#ffffff;fill-opacity:1;fill-rule:nonzero;stroke:none"
                   d="M 0,0 C -1.452,0 -2.634,-1.182 -2.634,-2.634 V -20.19 c 0,-1.453 1.182,-2.634 2.634,-2.634 h 22.711 c 1.452,0 2.634,1.181 2.634,2.634 V -2.634 C 25.345,-1.182 24.163,0 22.711,0 Z M 22.711,-23.574 H 0 c -1.866,0 -3.384,1.517 -3.384,3.384 v 17.556 c 0,1.866 1.518,3.384 3.384,3.384 h 22.711 c 1.866,0 3.384,-1.518 3.384,-3.384 V -20.19 c 0,-1.867 -1.518,-3.384 -3.384,-3.384" /></g></g></g></g><g
           transform="translate(93.6185,122.2428)"
           id="g212"><path
             id="path214"
             style="fill:#00a5ea;fill-opacity:1;fill-rule:nonzero;stroke:none"
             d="m 0,0 c 0,-0.69 -0.56,-1.25 -1.25,-1.25 -0.69,0 -1.25,0.56 -1.25,1.25 0,0.689 0.56,1.25 1.25,1.25 C -0.56,1.25 0,0.689 0,0" /></g><g
           transform="translate(97.6185,122.2428)"
           id="g216"><path
             id="path218"
             style="fill:#1b1464;fill-opacity:1;fill-rule:nonzero;stroke:none"
             d="m 0,0 c 0,-0.69 -0.56,-1.25 -1.25,-1.25 -0.69,0 -1.25,0.56 -1.25,1.25 0,0.689 0.56,1.25 1.25,1.25 C -0.56,1.25 0,0.689 0,0" /></g><g
           transform="translate(101.6185,122.2428)"
           id="g220"><path
             id="path222"
             style="fill:#1b1464;fill-opacity:1;fill-rule:nonzero;stroke:none"
             d="m 0,0 c 0,-0.69 -0.56,-1.25 -1.25,-1.25 -0.69,0 -1.25,0.56 -1.25,1.25 0,0.689 0.56,1.25 1.25,1.25 C -0.56,1.25 0,0.689 0,0" /></g><g
           id="g224"><g
             id="g226" /><g
             id="g238"><g
               style="opacity:0.19999701"
               id="g236"
               clip-path="url(#clipPath230)"><g
                 id="g234"
                 transform="translate(165.7279,135.4918)"><path
                   id="path232"
                   style="fill:#00a5ea;fill-opacity:1;fill-rule:nonzero;stroke:none"
                   d="m 0,0 c 0,-1.473 -1.193,-2.666 -2.666,-2.666 -1.473,0 -2.667,1.193 -2.667,2.666 0,1.473 1.194,2.667 2.667,2.667 C -1.193,2.667 0,1.473 0,0" /></g></g></g></g><g
           id="g240"><g
             id="g242" /><g
             id="g254"><g
               style="opacity:0.19999701"
               id="g252"
               clip-path="url(#clipPath246)"><g
                 id="g250"
                 transform="translate(245.265,0.8111)"><path
                   id="path248"
                   style="fill:#1c1e38;fill-opacity:1;fill-rule:nonzero;stroke:none"
                   d="m 0,0 c 0,-0.448 -10.354,-0.812 -23.125,-0.812 -12.772,0 -23.125,0.364 -23.125,0.812 0,0.448 10.353,0.811 23.125,0.811 C -10.354,0.811 0,0.448 0,0" /></g></g></g></g><g
           transform="translate(222.1752,74.0191)"
           id="g256"><path
             id="path258"
             style="fill:#db928d;fill-opacity:1;fill-rule:nonzero;stroke:none"
             d="m 0,0 c -0.196,0.471 -1.226,4.192 -0.732,4.323 l 3.455,0.92 C 3.06,5.333 4.112,4.008 4.221,3.682 4.229,3.657 4.483,2.77 4.481,2.745 4.47,2.611 4.779,0.925 5.12,0.265 5.232,0.049 5.438,-0.155 5.679,-0.338 6.066,-0.633 6.541,-0.871 6.844,-1.008 6.976,-1.067 6.99,-1.246 6.872,-1.327 5.706,-2.119 1.184,-5.105 -0.25,-4.787 -1.85,-4.433 1.196,-2.869 0,0" /></g><g
           transform="translate(218.5297,80.0387)"
           id="g260"><path
             id="path262"
             style="fill:#f8b7b0;fill-opacity:1;fill-rule:nonzero;stroke:none"
             d="m 0,0 c 0,-3.835 0.232,-8.407 2.601,-7.385 2.379,1.028 6.681,2.436 6.681,6.272 0,3.836 -0.569,6.945 -4.672,6.945 C 2.03,5.832 0,3.836 0,0" /></g><g
           transform="translate(209.1234,4.1607)"
           id="g264"><path
             id="path266"
             style="fill:#00a5ea;fill-opacity:1;fill-rule:nonzero;stroke:none"
             d="m 0,0 2.255,-0.729 c 0.11,-0.036 0.23,0.026 0.266,0.136 L 3.098,1.191 C 3.133,1.302 3.072,1.422 2.961,1.458 L 0.706,2.187 C 0.596,2.222 0.476,2.161 0.44,2.05 L -0.136,0.267 C -0.172,0.155 -0.11,0.036 0,0" /></g><g
           transform="translate(212.0179,3.8297)"
           id="g268"><path
             id="path270"
             style="fill:#1b1464;fill-opacity:1;fill-rule:nonzero;stroke:none"
             d="m 0,0 c 0,0 -0.501,-2.575 -0.897,-2.778 -0.397,-0.202 -2.268,0.402 -3.219,1.04 -0.951,0.638 -1.901,0.366 -3.847,0.995 -1.054,0.341 -1.841,0.861 -1.841,0.861 0,0 -0.183,1.208 1.71,0.927 1.893,-0.28 4.156,-0.186 4.652,0.068 C -2.947,1.366 -2.126,0.274 0,0" /></g><g
           transform="translate(238.6488,5.7584)"
           id="g272"><path
             id="path274"
             style="fill:#00a5ea;fill-opacity:1;fill-rule:nonzero;stroke:none"
             d="M 0,0 1.993,1.281 C 2.091,1.345 2.119,1.476 2.057,1.573 L 1.043,3.15 C 0.98,3.248 0.849,3.277 0.751,3.214 L -1.242,1.934 C -1.34,1.87 -1.369,1.739 -1.306,1.641 L -0.293,0.063 C -0.229,-0.034 -0.099,-0.062 0,0" /></g><g
           transform="translate(240.7406,7.7867)"
           id="g276"><path
             id="path278"
             style="fill:#1b1464;fill-opacity:1;fill-rule:nonzero;stroke:none"
             d="m 0,0 c 0,0 1.673,-2.021 1.578,-2.456 -0.095,-0.435 -1.749,-1.498 -2.846,-1.828 -1.096,-0.331 -1.633,-2.479 -3.673,-2.614 -2.61,-0.174 -2.361,0 -2.361,0 0,0 -0.532,0.774 1.734,1.656 1.807,0.703 2.406,2.743 2.524,3.286 C -2.926,-1.412 -1.561,-1.47 0,0" /></g><g
           transform="translate(231.7103,44.9224)"
           id="g280"><path
             id="path282"
             style="fill:#1876aa;fill-opacity:1;fill-rule:nonzero;stroke:none"
             d="m 0,0 c 0.145,-4.496 1.503,-15.069 1.386,-16.498 -0.117,-1.429 -6.583,-5.333 -7.304,-2.662 -0.721,2.671 -4.77,17.585 -6.583,23.258 -1.814,5.673 9.584,4.792 9.584,4.792 0,0 2.623,0.249 2.917,-8.89" /></g><g
           transform="translate(236.2367,20.5709)"
           id="g284"><path
             id="path286"
             style="fill:#1876aa;fill-opacity:1;fill-rule:nonzero;stroke:none"
             d="m 0,0 c 1.528,-3.942 4.069,-8.923 4.429,-10.179 0.359,-1.257 -3.44,-4.813 -4.842,-2.485 -1.402,2.329 -8.361,12.518 -10.119,18.134 -1.369,4.376 6.597,4.93 6.597,4.93 0,0 0.827,-2.387 3.935,-10.4" /></g><g
           transform="translate(228.3412,42.3472)"
           id="g288"><path
             id="path290"
             style="fill:#1e8fdc;fill-opacity:1;fill-rule:nonzero;stroke:none"
             d="m 0,0 c -2.118,-3.969 -6.216,-13.809 -7.03,-14.989 -0.815,-1.18 -8.366,-1.337 -7.658,1.338 0.708,2.673 4.64,17.62 5.899,23.44 C -7.53,15.61 1.909,9.16 1.909,9.16 1.909,9.16 4.306,8.067 0,0" /></g><g
           transform="translate(217.4613,57.9957)"
           id="g292"><path
             id="path294"
             style="fill:#00a5ea;fill-opacity:1;fill-rule:nonzero;stroke:none"
             d="m 0,0 c -3.956,-0.087 -10.046,0.719 -11.188,1.37 -1.143,0.651 -0.926,2.931 0.404,2.869 1.331,-0.061 7.998,0.421 10.049,-0.242" /></g><g
           transform="translate(218.473,17.8511)"
           id="g296"><path
             id="path298"
             style="fill:#1e8fdc;fill-opacity:1;fill-rule:nonzero;stroke:none"
             d="m 0,0 c -1.264,-4.035 -3.603,-10.502 -4.105,-11.708 -0.503,-1.205 -5.691,-1.617 -5.334,1.078 0.356,2.695 2.49,15.988 4.619,21.475 1.658,4.273 8.232,-0.262 8.232,-0.262 C 3.412,10.583 2.568,8.202 0,0" /></g><g
           transform="translate(230.9154,63.9351)"
           id="g300"><path
             id="path302"
             style="fill:#00a5ea;fill-opacity:1;fill-rule:nonzero;stroke:none"
             d="m 0,0 c 1.694,-3.497 2.188,-6.713 2.796,-7.551 1.858,-2.565 2.157,-1.328 3.365,-0.24 0.445,0.401 0.708,1.036 0.531,1.609 C 5.75,-3.117 3.923,4.707 2.009,6.765 -0.089,9.02 -1.187,9.248 -3.062,9.746 c 0,0 -3.094,-2.277 -5.41,-1.345 0,0 -1.322,-0.501 -1.842,-1.846 -1.888,-4.876 -1.836,-7.079 -1.731,-9.911 0.129,-3.473 0.634,-6.597 0.367,-7.971 -0.409,-2.104 -0.494,-2.747 0.367,-2.865 0.871,-0.121 11.065,-0.439 11.222,0.4 0.026,0.136 0.443,0.261 0.446,0.656 0.016,1.926 -1.303,6.709 -0.535,10.601 0.133,0.671 0.189,1.352 0.183,2.036 z" /></g><g
           transform="translate(221.6761,82.6793)"
           id="g304"><path
             id="path306"
             style="fill:#1c1e38;fill-opacity:1;fill-rule:nonzero;stroke:none"
             d="m 0,0 c 0,0 -3.143,-1.104 -3.722,-0.616 -0.327,0.276 -0.608,0.689 -0.791,0.996 -0.049,0.085 0.044,0.182 0.13,0.135 0.096,-0.054 0.204,-0.099 0.319,-0.118 0.346,-0.056 1.01,1.133 2.13,1.769 0.071,0.039 0.064,0.143 -0.01,0.173 -0.168,0.068 -0.397,0.177 -0.5,0.294 C -2.619,2.83 -0.835,2.598 0.271,3.17 1.379,3.742 5.374,3.696 5.749,2.537" /></g><g
           transform="translate(223.4672,77.9625)"
           id="g308"><path
             id="path310"
             style="fill:#1c1e38;fill-opacity:1;fill-rule:nonzero;stroke:none"
             d="M 0,0 C 0,0 -3.013,2.832 -2.453,4.207 -1.893,5.581 0.888,7.554 3.428,7.35 5.968,7.146 6.067,3.914 5.314,2 4.562,0.085 3.771,-1.326 3.771,-1.326 3.771,-1.326 1.548,0.186 0,0" /></g><g
           transform="translate(222.7123,78.8531)"
           id="g312"><path
             id="path314"
             style="fill:#f8b7b0;fill-opacity:1;fill-rule:nonzero;stroke:none"
             d="m 0,0 c -0.185,-0.761 0.153,-1.495 0.753,-1.64 0.6,-0.144 1.235,0.355 1.419,1.116 C 2.355,0.236 2.018,0.971 1.418,1.115 0.818,1.26 0.183,0.761 0,0" /></g><g
           transform="translate(241.6693,43.0377)"
           id="g316"><path
             id="path318"
             style="fill:#1b1464;fill-opacity:1;fill-rule:nonzero;stroke:none"
             d="m 0,0 -44.666,21.816 3.949,8.086 L 3.949,8.086 Z" /></g><g
           transform="translate(205.0394,60.0709)"
           id="g320"><path
             id="path322"
             style="fill:#f8b7b0;fill-opacity:1;fill-rule:nonzero;stroke:none"
             d="M 0,0 C 0.997,-0.446 2.577,-1.24 2.929,-0.454 3.28,0.332 2.449,1.018 1.451,1.464 0.454,1.91 -0.968,2.028 -1.319,1.242 -1.671,0.456 -0.998,0.446 0,0" /></g><g
           transform="translate(229.1029,52.4869)"
           id="g324"><path
             id="path326"
             style="fill:#f8b7b0;fill-opacity:1;fill-rule:nonzero;stroke:none"
             d="m 0,0 c 0.219,-0.411 0.701,-0.799 0.701,-0.799 0,0 -1.608,-1.206 -2.463,-1.568 -0.854,-0.362 -1.118,-0.438 -2.161,-0.514 -1.043,-0.076 -2.042,-0.042 -2.448,1.307 -0.329,1.091 1.088,1.83 1.89,1.789 0.801,-0.041 2.14,-0.482 2.749,-0.247 0.608,0.233 1.461,0.737 1.461,0.737 0,0 0.063,-0.315 0.271,-0.705" /></g><g
           transform="translate(235.2836,59.898)"
           id="g328"><path
             id="path330"
             style="fill:#00a5ea;fill-opacity:1;fill-rule:nonzero;stroke:none"
             d="m 0,0 c -3.094,-2.467 -6.823,-5.655 -7.284,-6.887 -0.46,-1.231 1.523,-3.596 2.506,-2.697 0.982,0.899 5.624,4.221 6.774,6.044" /></g><g
           id="g332"><g
             id="g334" /><g
             id="g346"><g
               style="opacity:0.19999701"
               id="g344"
               clip-path="url(#clipPath338)"><g
                 id="g342"
                 transform="translate(80.0092,16.7857)"><path
                   id="path340"
                   style="fill:#1c1e38;fill-opacity:1;fill-rule:nonzero;stroke:none"
                   d="m 0,0 c 0,-0.448 -11.453,-0.811 -25.581,-0.811 -14.127,0 -25.58,0.363 -25.58,0.811 0,0.448 11.453,0.812 25.58,0.812 C -11.453,0.812 0,0.448 0,0" /></g></g></g></g><g
           transform="translate(50.5609,32.9127)"
           id="g348"><path
             id="path350"
             style="fill:#1b1464;fill-opacity:1;fill-rule:nonzero;stroke:none"
             d="M 0,0 -1.197,16.392 H 17.334 L 21.462,0 Z M 26.521,-15.305 13.404,36.784 c -0.078,0.313 -0.395,0.5 -0.709,0.424 -0.312,-0.079 -0.503,-0.396 -0.424,-0.71 L 17.04,17.56 H -1.283 l -1.398,19.124 c -0.023,0.322 -0.294,0.558 -0.626,0.54 C -3.628,37.2 -3.869,36.92 -3.846,36.599 l 3.808,-52.089 c 0.022,-0.307 0.278,-0.541 0.582,-0.541 0.014,0 0.028,0 0.043,10e-4 0.322,0.023 0.563,0.303 0.54,0.625 L 0.086,-1.168 h 21.67 l 3.632,-14.422 c 0.066,-0.265 0.304,-0.441 0.565,-0.441 0.048,0 0.096,0.005 0.144,0.017 0.312,0.078 0.502,0.397 0.424,0.709" /></g><g
           transform="translate(61.4183,50.4722)"
           id="g352"><path
             id="path354"
             style="fill:#1b1464;fill-opacity:1;fill-rule:nonzero;stroke:none"
             d="m 0,0 h -18.323 l 4.561,18.117 H 1.324 Z m -22.745,-17.56 4.128,16.392 H -0.085 L -1.283,-17.56 Z M 2.667,20.046 h -17.475 c -0.53,0 -0.963,-0.434 -0.963,-0.965 0,-0.477 0.356,-0.857 0.813,-0.934 l -12.845,-51.011 c -0.079,-0.313 0.111,-0.631 0.424,-0.709 0.048,-0.013 0.096,-0.018 0.143,-0.018 0.261,0 0.499,0.176 0.566,0.442 l 3.631,14.421 h 21.67 l -1.04,-14.237 c -0.024,-0.321 0.218,-0.601 0.539,-0.625 0.016,-10e-4 0.029,-10e-4 0.044,-10e-4 0.303,0 0.559,0.235 0.581,0.541 l 3.74,51.167 h 0.172 c 0.53,0 0.965,0.434 0.965,0.964 0,0.531 -0.435,0.965 -0.965,0.965" /></g><g
           transform="translate(50.6049,102.6519)"
           id="g356"><path
             id="path358"
             style="fill:#f8b7b0;fill-opacity:1;fill-rule:nonzero;stroke:none"
             d="m 0,0 c 0.38,-0.113 0.785,-0.45 0.785,-0.45 0,0 0.736,1.546 0.894,2.32 C 1.837,2.645 1.854,2.877 1.742,3.761 1.63,4.644 1.433,5.473 0.238,5.584 -0.728,5.674 -1.105,4.367 -0.936,3.705 -0.767,3.043 -0.173,1.999 -0.266,1.452 -0.358,0.904 -0.634,0.106 -0.634,0.106 -0.634,0.106 -0.36,0.108 0,0" /></g><g
           transform="translate(45.2162,88.5777)"
           id="g360"><path
             id="path362"
             style="fill:#0b0b3a;fill-opacity:1;fill-rule:nonzero;stroke:none"
             d="m 0,0 c 2.235,1.301 5.014,2.896 5.877,4.852 0.892,2.02 0.97,8.348 0.897,9.506 -0.008,0.15 -0.088,0.285 -0.212,0.37 -0.788,0.544 -1.674,0.486 -1.84,0.281 C 4.541,14.787 4.847,7.643 2.775,5.342 1.329,3.735 1.066,3.808 -0.646,3.003 -2.255,2.247 -3.449,2.881 -3.532,0.939 -3.614,-1.003 -2.114,-1.23 0,0" /></g><g
           transform="translate(45.5492,88.2408)"
           id="g364"><path
             id="path366"
             style="fill:#f8b7b0;fill-opacity:1;fill-rule:nonzero;stroke:none"
             d="M 0,0 C 1.99,-0.265 3.253,0.815 3.652,1.312 4.052,1.809 2.77,2.31 2.307,2.808 2.108,3.021 2.028,3.366 2.023,3.806 2.016,4.399 2,6.284 2.167,7.128 L -1.689,6.711 c 0,0 0.128,-1.969 0.127,-2.705 0,-0.132 -0.016,-0.243 -0.049,-0.343 C -1.759,3.205 -2.238,3.011 -3.003,2.407 -3.934,1.674 -1.99,0.264 0,0" /></g><g
           transform="translate(42.181,95.481)"
           id="g368"><path
             id="path370"
             style="fill:#f8b7b0;fill-opacity:1;fill-rule:nonzero;stroke:none"
             d="M 0,0 C 1.141,-1.945 1.728,-2.87 2.93,-3.315 4.131,-3.76 5.151,-3.756 5.818,-3.437 6.653,-3.038 7.216,-1.002 7.026,-0.039 6.83,0.958 6.06,3.398 4.747,5.497 4.082,6.562 2.168,7.322 0.856,6.695 -0.455,6.068 -2.785,4.75 0,0" /></g><g
           transform="translate(46.9584,98.69)"
           id="g372"><path
             id="path374"
             style="fill:#1c1e38;fill-opacity:1;fill-rule:nonzero;stroke:none"
             d="m 0,0 c 0.594,-1.87 0.459,-2.72 -0.059,-3.82 -0.517,-1.102 -1.497,-1.696 -2.201,-1.749 -0.891,-0.069 -1.095,0.173 -2.649,1.629 -0.649,0.608 -1.724,1.448 -2.31,3.525 C -7.516,0.638 -6.728,2.42 -5.37,3.019 -4.012,3.616 -1.453,4.569 0,0" /></g><g
           transform="translate(47.9359,97.5211)"
           id="g376"><path
             id="path378"
             style="fill:#f8b7b0;fill-opacity:1;fill-rule:nonzero;stroke:none"
             d="m 0,0 c 0.21,-0.702 -0.019,-1.396 -0.512,-1.551 -0.492,-0.155 -1.062,0.288 -1.272,0.989 -0.211,0.702 0.018,1.396 0.511,1.551 C -0.78,1.144 -0.211,0.701 0,0" /></g><g
           transform="translate(45.9242,99.4508)"
           id="g380"><path
             id="path382"
             style="fill:#1c1e38;fill-opacity:1;fill-rule:nonzero;stroke:none"
             d="M 0,0 C 0.688,0.977 1.652,1.926 0.707,2.598 -0.239,3.271 -2.602,4.015 -4.762,2.176 -7.317,0 0,0 0,0" /></g><g
           transform="translate(55.0463,33.8697)"
           id="g384"><path
             id="path386"
             style="fill:#0b0b3a;fill-opacity:1;fill-rule:nonzero;stroke:none"
             d="m 0,0 c -2.052,0.11 -3.843,0.664 -3.758,-0.596 0.071,-1.069 0.165,-0.977 3.672,-0.998 2.055,-0.011 3.734,0.157 3.758,0.596 C 3.695,-0.558 2.052,-0.111 0,0" /></g><g
           transform="translate(45.1488,33.8687)"
           id="g388"><path
             id="path390"
             style="fill:#0b0b3a;fill-opacity:1;fill-rule:nonzero;stroke:none"
             d="m 0,0 c -1.939,0.677 -3.843,0.664 -3.758,-0.596 0.072,-1.068 -0.07,-0.977 3.437,-0.997 2.054,-0.011 2.588,0.414 2.251,0.698 C 1.38,-0.431 0.822,-0.286 0,0" /></g><g
           transform="translate(47.9437,91.6939)"
           id="g392"><path
             id="path394"
             style="fill:#1b1464;fill-opacity:1;fill-rule:nonzero;stroke:none"
             d="m 0,0 c -1.891,-0.004 -2.904,0.085 -5.121,-0.447 -1.549,-0.372 -3.212,-1.372 -2.611,-5.995 0,0 1.159,-11.375 1.226,-12.93 0.161,-3.66 -0.89,-4.403 2.06,-4.14 3.11,0.278 6.813,0.132 8.313,0.31 0.469,0.056 0.337,1.17 0.154,2.538 -0.147,1.107 -1.033,9.771 -0.914,13.843 C 3.125,-4.014 3.879,0.008 0,0" /></g><g
           transform="translate(41.7162,35.2359)"
           id="g396"><path
             id="path398"
             style="fill:#1e8fdc;fill-opacity:1;fill-rule:nonzero;stroke:none"
             d="m 0,0 c -0.111,-1.099 -0.245,-1.508 -0.245,-1.508 0,0 0.724,-0.134 2.99,0.147 0.223,0.029 0.608,3.264 0.754,4.818 0.151,1.589 0.847,9.13 0.794,10.918 -0.059,1.781 0.274,12.529 0.274,12.529 h 0.784 c 0,0 2.172,-5.585 2.482,-7.576 0.468,-3.043 0.823,-4.872 0.777,-5.94 -0.076,-1.91 0.835,-11.717 1.004,-12.762 0.17,-1.046 0,-2.149 0,-2.149 0,0 1.665,-0.509 3.376,-0.065 0,0 -0.239,14.584 -0.292,16.944 -0.034,1.629 -1.197,9.959 -1.851,14.527 -0.012,0.105 -0.024,0.204 -0.041,0.304 -0.234,1.629 -0.391,2.71 -0.391,2.71 0,0 0,0.444 -0.392,0.497 -0.198,0.029 -0.45,0.076 -1.25,0.117 -0.093,0.005 -0.198,0.005 -0.309,0.016 -0.76,0.024 -1.928,0.047 -3.756,0.047 -4.34,0 -5.035,-0.104 -5.035,-0.402 0,0 0.525,-15.515 0.637,-17.974 C 0.427,12.739 0.111,1.098 0,0" /></g><g
           transform="translate(50.1801,68.7633)"
           id="g400"><path
             id="path402"
             style="fill:#2b7d99;fill-opacity:1;fill-rule:nonzero;stroke:none"
             d="M 0,0 C 0.111,-0.012 0.216,-0.012 0.31,-0.017 0.21,-0.28 0.157,-0.566 0.157,-0.864 c 0,-1.274 0.952,-2.324 2.185,-2.477 0.017,-0.099 0.029,-0.198 0.041,-0.304 -1.413,0.141 -2.518,1.338 -2.518,2.781 0,0.298 0.047,0.59 0.135,0.864" /></g><g
           transform="translate(66.7172,92.8746)"
           id="g404"><path
             id="path406"
             style="fill:#1b1464;fill-opacity:1;fill-rule:nonzero;stroke:none"
             d="m 0,0 c -6.456,0 -12.524,2.514 -17.089,7.078 -4.564,4.565 -7.078,10.634 -7.078,17.089 0,6.455 2.514,12.523 7.078,17.088 l 7.778,-7.778 c -5.133,-5.134 -5.133,-13.487 0,-18.621 C -6.824,12.369 -3.518,11 0,11 c 3.517,0 6.823,1.37 9.311,3.856 L 17.088,7.078 C 12.523,2.514 6.455,0 0,0" /></g><g
           transform="translate(63.8256,92.3375)"
           id="g408"><path
             id="path410"
             style="fill:#f8b7b0;fill-opacity:1;fill-rule:nonzero;stroke:none"
             d="m 0,0 c 0.148,-0.368 0.139,-0.895 0.139,-0.895 0,0 1.667,0.393 2.37,0.754 0.703,0.362 0.895,0.493 1.514,1.133 0.62,0.64 1.143,1.313 0.483,2.314 C 3.972,4.116 2.716,3.593 2.305,3.047 1.895,2.501 1.451,1.385 0.966,1.114 0.481,0.845 -0.313,0.561 -0.313,0.561 -0.313,0.561 -0.142,0.349 0,0" /></g><g
           transform="translate(49.473,87.7388)"
           id="g412"><path
             id="path414"
             style="fill:#1b1464;fill-opacity:1;fill-rule:nonzero;stroke:none"
             d="m 0,0 c 2.412,-0.931 5.395,-2.101 7.461,-1.551 2.134,0.568 7.121,4.465 7.979,5.245 0.112,0.101 0.166,0.247 0.156,0.397 -0.069,0.955 -0.668,1.61 -0.932,1.612 C 14.378,5.705 8.995,0.998 5.904,1.176 3.746,1.299 3.638,1.55 1.938,2.383 0.344,3.165 0.091,4.494 -1.477,3.344 -3.043,2.193 -2.283,0.881 0,0" /></g><g
           transform="translate(173.9291,172.7486)"
           id="g416"><path
             id="path418"
             style="fill:#1b1464;fill-opacity:1;fill-rule:nonzero;stroke:none"
             d="m 0,0 c -4.42,0 -8.016,-3.597 -8.016,-8.017 0,-4.421 3.596,-8.016 8.016,-8.016 4.42,0 8.017,3.595 8.017,8.016 C 8.017,-3.597 4.42,0 0,0 m 0,-25.033 c -9.383,0 -17.016,7.634 -17.016,17.016 C -17.016,1.366 -9.383,9 0,9 9.383,9 17.017,1.366 17.017,-8.017 17.017,-17.399 9.383,-25.033 0,-25.033" /></g><g
           id="g420"><g
             id="g422" /><g
             id="g434"><g
               style="opacity:0.19999701"
               id="g432"
               clip-path="url(#clipPath426)"><g
                 id="g430"
                 transform="translate(143.1469,100.2525)"><path
                   id="path428"
                   style="fill:#1b1464;fill-opacity:1;fill-rule:nonzero;stroke:none"
                   d="m 0,0 h -38.912 c -2.356,0 -4.265,-1.91 -4.265,-4.266 v -22.441 c 0,-2.355 1.909,-4.265 4.265,-4.265 h 4.422 l 5.508,-7.367 c 1.177,-1.575 3.539,-1.575 4.715,0 l 5.509,7.367 H 0 c 2.355,0 4.265,1.91 4.265,4.265 V -4.266 C 4.265,-1.91 2.355,0 0,0" /></g></g></g></g><g
           transform="translate(135.1469,93.2525)"
           id="g436"><path
             id="path438"
             style="fill:#1b1464;fill-opacity:1;fill-rule:nonzero;stroke:none"
             d="m 0,0 h -38.912 c -2.356,0 -4.265,-1.91 -4.265,-4.266 v -22.441 c 0,-2.355 1.909,-4.265 4.265,-4.265 h 4.422 l 5.508,-7.367 c 1.177,-1.575 3.539,-1.575 4.715,0 l 5.509,7.367 H 0 c 2.355,0 4.265,1.91 4.265,4.265 V -4.266 C 4.265,-1.91 2.355,0 0,0" /></g><g
           transform="translate(129.5219,85.4097)"
           id="g440"><path
             id="path442"
             style="fill:#00a5ea;fill-opacity:1;fill-rule:nonzero;stroke:none"
             d="m 0,0 h -31.104 c -0.828,0 -1.5,0.672 -1.5,1.5 0,0.828 0.672,1.5 1.5,1.5 H 0 C 0.828,3 1.5,2.328 1.5,1.5 1.5,0.672 0.828,0 0,0" /></g><g
           transform="translate(129.5219,78.3306)"
           id="g444"><path
             id="path446"
             style="fill:#00a5ea;fill-opacity:1;fill-rule:nonzero;stroke:none"
             d="m 0,0 h -31.104 c -0.828,0 -1.5,0.672 -1.5,1.5 0,0.828 0.672,1.5 1.5,1.5 H 0 C 0.828,3 1.5,2.328 1.5,1.5 1.5,0.672 0.828,0 0,0" /></g><g
           transform="translate(115.2308,71.2515)"
           id="g448"><path
             id="path450"
             style="fill:#00a5ea;fill-opacity:1;fill-rule:nonzero;stroke:none"
             d="m 0,0 h -16.812 c -0.829,0 -1.5,0.672 -1.5,1.5 0,0.828 0.671,1.5 1.5,1.5 H 0 C 0.828,3 1.5,2.328 1.5,1.5 1.5,0.672 0.828,0 0,0" /></g><g
           id="g452"><g
             id="g454" /><g
             id="g466"><g
               style="opacity:0.30000299"
               id="g464"
               clip-path="url(#clipPath458)"><g
                 id="g462"
                 transform="translate(168.515,108.6558)"><path
                   id="path460"
                   style="fill:#48bfcc;fill-opacity:1;fill-rule:nonzero;stroke:none"
                   d="m 0,0 h 24.129 c 1.461,0 2.644,-1.184 2.644,-2.645 V -16.56 c 0,-1.461 -1.183,-2.644 -2.644,-2.644 h -2.742 l -3.415,-4.568 c -0.731,-0.978 -2.195,-0.978 -2.925,0 l -3.415,4.568 H 0 c -1.461,0 -2.645,1.183 -2.645,2.644 V -2.645 C -2.645,-1.184 -1.461,0 0,0" /></g></g></g></g><g
           transform="translate(164.476,104.316)"
           id="g468"><path
             id="path470"
             style="fill:#00a5ea;fill-opacity:1;fill-rule:nonzero;stroke:none"
             d="m 0,0 h 24.128 c 1.461,0 2.644,-1.185 2.644,-2.646 v -13.915 c 0,-1.46 -1.183,-2.644 -2.644,-2.644 h -2.741 l -3.416,-4.568 c -0.731,-0.977 -2.195,-0.977 -2.924,0 l -3.416,4.568 H 0 c -1.461,0 -2.646,1.184 -2.646,2.644 V -2.646 C -2.646,-1.185 -1.461,0 0,0" /></g><g
           transform="translate(171.2084,94.733)"
           id="g472"><path
             id="path474"
             style="fill:#f9f9fc;fill-opacity:1;fill-rule:nonzero;stroke:none"
             d="m 0,0 c 0,-1.187 -0.963,-2.151 -2.151,-2.151 -1.188,0 -2.152,0.964 -2.152,2.151 0,1.188 0.964,2.151 2.152,2.151 C -0.963,2.151 0,1.188 0,0" /></g><g
           transform="translate(178.6908,94.733)"
           id="g476"><path
             id="path478"
             style="fill:#f9f9fc;fill-opacity:1;fill-rule:nonzero;stroke:none"
             d="m 0,0 c 0,-1.187 -0.963,-2.151 -2.151,-2.151 -1.188,0 -2.151,0.964 -2.151,2.151 0,1.188 0.963,2.151 2.151,2.151 C -0.963,2.151 0,1.188 0,0" /></g><g
           transform="translate(186.1732,94.733)"
           id="g480"><path
             id="path482"
             style="fill:#f9f9fc;fill-opacity:1;fill-rule:nonzero;stroke:none"
             d="m 0,0 c 0,-1.187 -0.963,-2.151 -2.151,-2.151 -1.188,0 -2.151,0.964 -2.151,2.151 0,1.188 0.963,2.151 2.151,2.151 C -0.963,2.151 0,1.188 0,0" /></g></g></g></g></svg>