<?xml version="1.0" encoding="UTF-8" standalone="no"?>
<svg
   xmlns:dc="http://purl.org/dc/elements/1.1/"
   xmlns:cc="http://creativecommons.org/ns#"
   xmlns:rdf="http://www.w3.org/1999/02/22-rdf-syntax-ns#"
   xmlns:svg="http://www.w3.org/2000/svg"
   xmlns="http://www.w3.org/2000/svg"
   viewBox="0 0 292.79068 220.35068"
   height="220.35068"
   width="292.79068"
   xml:space="preserve"
   id="svg2"
   version="1.1"><metadata
     id="metadata8"><rdf:RDF><cc:Work
         rdf:about=""><dc:format>image/svg+xml</dc:format><dc:type
           rdf:resource="http://purl.org/dc/dcmitype/StillImage" /></cc:Work></rdf:RDF></metadata><defs
     id="defs6"><clipPath
       id="clipPath18"
       clipPathUnits="userSpaceOnUse"><path
         id="path16"
         d="M 0,165.263 H 219.593 V 0 H 0 Z" /></clipPath></defs><g
     transform="matrix(1.3333333,0,0,-1.3333333,0,220.35067)"
     id="g10"><g
       id="g12"><g
         clip-path="url(#clipPath18)"
         id="g14"><g
           transform="translate(95.4297,118.9815)"
           id="g20"><path
             id="path22"
             style="fill:#ffffff;fill-opacity:1;fill-rule:nonzero;stroke:none"
             d="m 0,0 c 0,-0.883 0.719,-1.603 1.604,-1.603 0.884,0 1.604,0.72 1.604,1.603 0,0.885 -0.72,1.604 -1.604,1.604 C 0.719,1.604 0,0.885 0,0 m 5.375,0 c 0,-2.078 -1.692,-3.771 -3.771,-3.771 -2.08,0 -3.771,1.693 -3.771,3.771 0,2.08 1.691,3.771 3.771,3.771 C 3.683,3.771 5.375,2.08 5.375,0" /></g><g
           transform="translate(96.9756,107.8438)"
           id="g24"><path
             id="path26"
             style="fill:none;stroke:#ffffff;stroke-width:1;stroke-linecap:butt;stroke-linejoin:miter;stroke-miterlimit:10;stroke-dasharray:none;stroke-opacity:1"
             d="m 0,0 h 4.225 c 0,7.473 7.668,12.792 7.668,12.792 L 0,26.603 -11.894,12.787 c 0,0 7.668,-5.314 7.668,-12.787 z" /></g><path
           id="path28"
           style="fill:#ffffff;fill-opacity:1;fill-rule:nonzero;stroke:none"
           d="m 97.902,122.166 h -2.167 v 12.455 h 2.167 z" /><path
           id="path30"
           style="fill:#ffffff;fill-opacity:1;fill-rule:nonzero;stroke:none"
           d="M 104.455,58.188 H 88.562 v -4.061 h 15.893 z m 2.166,1.084 v -6.228 c 0,-0.598 -0.485,-1.083 -1.083,-1.083 H 87.479 c -0.599,0 -1.083,0.485 -1.083,1.083 v 6.228 c 0,0.597 0.484,1.083 1.083,1.083 h 18.059 c 0.598,0 1.083,-0.486 1.083,-1.083" /><g
           transform="translate(104.4551,60.3545)"
           id="g32"><path
             id="path34"
             style="fill:#ffffff;fill-opacity:1;fill-rule:nonzero;stroke:none"
             d="m 0,0 v 41.424 h -0.785 c -0.6,0 -1.083,0.485 -1.083,1.084 v 3.898 h -12.157 v -3.898 c 0,-0.599 -0.486,-1.084 -1.084,-1.084 h -0.785 V 0 Z M 2.165,42.508 V -1.083 c 0,-0.599 -0.483,-1.084 -1.083,-1.084 h -18.059 c -0.597,0 -1.083,0.485 -1.083,1.084 v 43.591 c 0,0.598 0.486,1.083 1.083,1.083 h 0.785 v 3.898 c 0,0.599 0.484,1.084 1.083,1.084 h 14.324 c 0.598,0 1.083,-0.485 1.083,-1.084 v -3.898 h 0.784 c 0.6,0 1.083,-0.485 1.083,-1.083" /></g><path
           id="path36"
           style="fill:#ffffff;fill-opacity:1;fill-rule:nonzero;stroke:none"
           d="m 96.197,101.778 h -6.852 v 2.167 h 6.852 z" /><g
           transform="translate(48.5605,121.96)"
           id="g38"><path
             id="path40"
             style="fill:#ffffff;fill-opacity:1;fill-rule:nonzero;stroke:none"
             d="M 0,0 -0.306,1.71 C 1.187,1.976 2.718,2.113 4.247,2.118 L 4.252,0.381 C 2.824,0.377 1.394,0.248 0,0 m 12.632,-1.06 c -1.338,0.482 -2.726,0.847 -4.126,1.087 l 0.293,1.712 c 1.5,-0.257 2.987,-0.649 4.421,-1.164 z m -20.611,-1.872 -0.875,1.501 c 1.318,0.768 2.708,1.423 4.136,1.947 l 0.599,-1.63 c -1.331,-0.49 -2.63,-1.102 -3.86,-1.818 m 27.988,-2.359 c -1.092,0.911 -2.27,1.731 -3.503,2.439 l 0.864,1.506 c 1.321,-0.757 2.583,-1.635 3.752,-2.611 z m -34.486,-3.127 -1.333,1.113 c 0.977,1.169 2.061,2.259 3.224,3.241 l 1.12,-1.328 c -1.086,-0.916 -2.098,-1.934 -3.011,-3.026 m 39.981,-3.365 c -0.715,1.224 -1.545,2.397 -2.464,3.484 l 1.326,1.122 c 0.985,-1.164 1.872,-2.42 2.638,-3.731 z m -44.221,-4.01 -1.633,0.591 c 0.517,1.43 1.164,2.825 1.924,4.147 l 1.506,-0.865 c -0.709,-1.234 -1.314,-2.538 -1.797,-3.873 m 47.161,-3.967 c -0.251,1.402 -0.628,2.787 -1.119,4.118 l 1.63,0.602 c 0.525,-1.427 0.929,-2.911 1.199,-4.412 z m -48.611,-4.413 h -1.736 v 0.056 c 0,1.509 0.129,3.02 0.384,4.496 l 1.711,-0.296 c -0.238,-1.378 -0.359,-2.791 -0.359,-4.2 z m 50.341,-4.496 -1.711,0.299 c 0.244,1.394 0.368,2.825 0.368,4.253 v 0.111 h 1.736 v -0.098 c 0,-1.542 -0.131,-3.073 -0.393,-4.565 m -50.484,-4.472 c -0.523,1.427 -0.923,2.912 -1.19,4.414 l 1.71,0.304 c 0.249,-1.402 0.623,-2.788 1.11,-4.121 z m 47.371,-4.088 -1.504,0.869 c 0.713,1.231 1.319,2.533 1.805,3.868 l 1.633,-0.594 c -0.521,-1.431 -1.171,-2.825 -1.934,-4.143 m -42.8,-3.786 c -0.983,1.168 -1.868,2.425 -2.63,3.738 l 1.502,0.872 c 0.712,-1.226 1.538,-2.4 2.456,-3.49 z m 36.946,-3.191 -1.118,1.329 c 1.088,0.915 2.103,1.932 3.018,3.021 l 1.33,-1.117 c -0.979,-1.167 -2.065,-2.254 -3.23,-3.233 M -8.756,-46.86 c -1.317,0.758 -2.577,1.64 -3.747,2.619 l 1.115,1.332 c 1.093,-0.914 2.27,-1.737 3.499,-2.447 z m 22.084,-1.911 -0.596,1.632 c 1.334,0.488 2.634,1.096 3.864,1.809 l 0.871,-1.503 c -1.317,-0.764 -2.71,-1.416 -4.139,-1.938 m -13.519,-1.194 c -1.503,0.261 -2.989,0.656 -4.419,1.175 l 0.592,1.633 c 1.335,-0.485 2.722,-0.853 4.122,-1.096 z m 4.552,-0.388 -0.003,1.737 c 1.429,0.002 2.86,0.127 4.254,0.373 l 0.301,-1.711 c -1.492,-0.263 -3.024,-0.397 -4.552,-0.399" /></g><g
           transform="translate(49.4629,79.7852)"
           id="g42"><path
             id="path44"
             style="fill:#ffffff;fill-opacity:1;fill-rule:nonzero;stroke:none"
             d="m 0,0 c 0.095,-0.007 0.22,-0.012 0.386,-0.012 h 6.862 v 4.393 c 0,0.316 0.171,0.607 0.448,0.761 0.283,0.155 0.682,0.304 1.145,0.477 0.488,0.183 1.042,0.39 1.442,0.604 0.339,0.177 0.754,0.117 1.023,-0.154 L 14.65,2.715 19.434,7.503 16.1,10.602 c -0.287,0.267 -0.36,0.697 -0.175,1.044 0.22,0.412 0.428,0.903 0.611,1.335 0.173,0.412 0.323,0.765 0.471,1.033 0.153,0.277 0.444,0.448 0.76,0.448 h 4.423 c 0.017,0.109 0.031,0.256 0.031,0.434 v 6.866 c 0,0.184 -0.014,0.335 -0.032,0.446 h -4.422 c -0.391,0 -0.733,0.261 -0.837,0.638 -0.194,0.703 -0.428,1.124 -0.75,1.706 -0.081,0.147 -0.166,0.301 -0.254,0.465 -0.183,0.341 -0.117,0.765 0.163,1.035 l 3.313,3.193 -4.759,4.727 -3.335,-3.375 C 11.039,30.324 10.622,30.262 10.283,30.44 9.889,30.652 9.341,30.854 8.858,31.034 8.386,31.21 7.979,31.36 7.691,31.521 7.417,31.676 7.248,31.965 7.248,32.279 v 4.792 C 7.244,37.097 7.212,37.148 7.183,37.182 H 0.386 C 0.301,37.166 0.096,37.042 0,36.945 V 32.279 C 0,31.891 -0.258,31.549 -0.633,31.443 -1.369,31.236 -1.84,30.979 -2.435,30.65 l -0.398,-0.215 c -0.342,-0.184 -0.765,-0.119 -1.034,0.161 l -3.216,3.318 -4.732,-4.754 3.349,-3.098 c 0.29,-0.266 0.362,-0.697 0.176,-1.045 -0.085,-0.16 -0.167,-0.306 -0.245,-0.449 -0.324,-0.589 -0.559,-1.011 -0.755,-1.722 -0.104,-0.377 -0.446,-0.638 -0.837,-0.638 h -4.632 c -0.094,-0.115 -0.204,-0.342 -0.214,-0.455 v -6.857 c 0.01,-0.102 0.119,-0.322 0.211,-0.434 h 4.635 c 0.316,0 0.607,-0.171 0.76,-0.448 0.147,-0.267 0.297,-0.619 0.471,-1.028 0.184,-0.434 0.394,-0.926 0.614,-1.34 0.183,-0.341 0.116,-0.764 -0.163,-1.034 l -3.317,-3.198 4.76,-4.728 3.124,3.356 c 0.269,0.287 0.7,0.358 1.045,0.172 L -2.479,6.021 C -1.847,5.677 -1.39,5.427 -0.637,5.218 -0.26,5.114 0,4.771 0,4.381 Z M 7.254,-1.748 H 0.386 c -1.407,0 -2.122,0.449 -2.122,1.336 v 4.159 c -0.51,0.187 -0.923,0.398 -1.332,0.618 L -5.786,1.46 C -6.455,0.781 -7.568,0.79 -8.199,1.426 l -4.855,4.822 c -0.322,0.323 -0.498,0.738 -0.497,1.171 10e-4,0.433 0.177,0.846 0.498,1.163 l 2.946,2.84 c -0.14,0.302 -0.269,0.603 -0.388,0.886 -0.062,0.145 -0.123,0.288 -0.18,0.418 h -4.243 c -1.111,0 -1.791,1.405 -1.791,2.17 v 6.866 c 0,0.769 0.68,2.182 1.791,2.182 h 4.158 c 0.187,0.503 0.396,0.904 0.617,1.305 l -2.901,2.684 c -0.685,0.684 -0.693,1.754 -0.041,2.414 l 4.832,4.854 c 0.636,0.642 1.705,0.643 2.343,-0.002 l 2.83,-2.921 c 0.414,0.227 0.829,0.442 1.344,0.632 v 4.161 c 0,1.02 1.283,1.847 2.122,1.847 h 6.868 c 0.991,0 1.73,-0.975 1.73,-1.847 v -4.228 c 0.149,-0.058 0.315,-0.119 0.478,-0.181 0.335,-0.124 0.698,-0.258 1.045,-0.406 l 2.938,2.96 c 0.644,0.647 1.759,0.655 2.394,0.013 l 4.854,-4.817 c 0.664,-0.67 0.663,-1.671 0.002,-2.332 l -2.923,-2.818 c 0.225,-0.408 0.438,-0.809 0.627,-1.318 h 4.162 c 0.419,0 1.397,-0.213 1.397,-2.182 v -6.866 c 0,-1.958 -0.978,-2.17 -1.397,-2.17 h -4.246 c -0.057,-0.131 -0.117,-0.274 -0.179,-0.42 -0.117,-0.277 -0.243,-0.577 -0.38,-0.871 l 2.916,-2.712 c 0.342,-0.339 0.519,-0.764 0.52,-1.217 0,-0.451 -0.174,-0.875 -0.493,-1.195 L 15.845,1.453 C 15.215,0.815 14.1,0.812 13.457,1.452 L 10.509,4.408 C 10.158,4.258 9.79,4.12 9.449,3.992 9.291,3.934 9.129,3.873 8.984,3.815 v -4.227 c 0,-0.609 -0.3,-1.336 -1.73,-1.336" /></g><g
           transform="translate(53.1064,103.1807)"
           id="g46"><path
             id="path48"
             style="fill:#ffffff;fill-opacity:1;fill-rule:nonzero;stroke:none"
             d="m 0,0 c -2.918,0 -5.292,-2.375 -5.292,-5.294 0,-2.919 2.374,-5.294 5.292,-5.294 2.92,0 5.295,2.375 5.295,5.294 C 5.295,-2.375 2.92,0 0,0 m 0,-12.324 c -3.875,0 -7.029,3.154 -7.029,7.03 0,3.877 3.154,7.031 7.029,7.031 3.878,0 7.032,-3.154 7.032,-7.031 0,-3.876 -3.154,-7.03 -7.032,-7.03" /></g><g
           transform="translate(71.0254,158.128)"
           id="g50"><path
             id="path52"
             style="fill:#ffffff;fill-opacity:1;fill-rule:nonzero;stroke:none"
             d="M 0,0 C 0,1.157 0.937,2.097 2.096,2.097 3.252,2.097 4.192,1.157 4.192,0 4.192,-1.156 3.252,-2.096 2.096,-2.096 0.937,-2.096 0,-1.156 0,0 M 6.275,-3.359 C 5.312,-2.717 5.053,-1.415 5.696,-0.451 6.34,0.511 7.641,0.769 8.604,0.126 9.566,-0.516 9.825,-1.819 9.183,-2.782 8.779,-3.386 8.114,-3.714 7.437,-3.714 c -0.4,0 -0.804,0.114 -1.162,0.355 M -5.784,-3.71 c -0.756,0.877 -0.659,2.201 0.218,2.958 0.876,0.756 2.199,0.659 2.955,-0.218 0.757,-0.874 0.659,-2.199 -0.215,-2.955 -0.397,-0.345 -0.884,-0.512 -1.37,-0.512 -0.587,0 -1.172,0.249 -1.588,0.727 M 9.36,-7.614 c -0.31,1.116 0.343,2.271 1.46,2.58 1.115,0.308 2.269,-0.345 2.58,-1.46 0.308,-1.116 -0.345,-2.272 -1.462,-2.58 -0.187,-0.052 -0.375,-0.076 -0.56,-0.076 -0.919,0 -1.762,0.608 -2.018,1.536 m -17.099,-2.682 c -1.145,0.168 -1.938,1.233 -1.77,2.379 0.168,1.145 1.233,1.938 2.378,1.77 1.145,-0.167 1.938,-1.233 1.771,-2.378 -0.153,-1.042 -1.049,-1.793 -2.072,-1.793 -0.101,0 -0.204,0.006 -0.307,0.022 m 17.652,-5.343 c -1.046,0.493 -1.494,1.743 -0.999,2.79 0.494,1.046 1.744,1.494 2.79,0.998 1.048,-0.493 1.494,-1.743 1.001,-2.79 -0.359,-0.755 -1.111,-1.2 -1.896,-1.2 -0.302,0 -0.606,0.065 -0.896,0.202 m -17.724,-0.274 c -0.622,0.976 -0.332,2.271 0.645,2.892 0.978,0.622 2.274,0.332 2.894,-0.646 0.621,-0.976 0.331,-2.271 -0.646,-2.894 -0.35,-0.219 -0.738,-0.324 -1.121,-0.324 -0.693,0 -1.372,0.343 -1.772,0.972 M 4.091,-19.29 c -0.47,1.058 0.006,2.296 1.063,2.767 1.058,0.47 2.297,-0.005 2.767,-1.063 0.471,-1.059 -0.005,-2.297 -1.063,-2.768 -0.276,-0.125 -0.566,-0.18 -0.85,-0.18 -0.804,0 -1.57,0.463 -1.917,1.244 m -5.393,-1.57 c -1.109,0.334 -1.736,1.504 -1.401,2.612 0.336,1.107 1.506,1.734 2.613,1.401 1.109,-0.336 1.736,-1.507 1.401,-2.615 -0.274,-0.905 -1.107,-1.49 -2.007,-1.49 -0.2,0 -0.404,0.029 -0.606,0.092" /></g><g
           transform="translate(53.3613,61.4785)"
           id="g54"><path
             id="path56"
             style="fill:#ffffff;fill-opacity:1;fill-rule:nonzero;stroke:none"
             d="m 0,0 c 0,0.863 0.701,1.563 1.564,1.563 0.865,0 1.565,-0.7 1.565,-1.563 0,-0.863 -0.7,-1.564 -1.565,-1.564 C 0.701,-1.564 0,-0.863 0,0 m 4.684,-2.507 h 10e-4 c -0.72,0.48 -0.913,1.45 -0.433,2.17 0.48,0.719 1.451,0.912 2.169,0.431 h 0.002 c 0.718,-0.479 0.911,-1.45 0.431,-2.169 -0.302,-0.452 -0.798,-0.697 -1.303,-0.697 -0.299,0 -0.6,0.084 -0.867,0.265 m -8.999,-0.261 c -0.565,0.654 -0.494,1.642 0.161,2.206 0.654,0.565 1.641,0.493 2.207,-0.162 0.565,-0.652 0.492,-1.641 -0.162,-2.206 -0.296,-0.257 -0.66,-0.382 -1.021,-0.382 -0.44,0 -0.876,0.186 -1.185,0.544 M 6.986,-5.683 v 0 c -0.23,0.833 0.258,1.696 1.09,1.926 0.833,0.231 1.695,-0.258 1.925,-1.09 0.23,-0.833 -0.257,-1.695 -1.089,-1.925 -0.141,-0.04 -0.28,-0.057 -0.42,-0.057 -0.685,0 -1.314,0.453 -1.506,1.146 M -5.775,-7.684 c -0.855,0.125 -1.446,0.92 -1.321,1.775 0.126,0.854 0.921,1.446 1.776,1.321 0.854,-0.125 1.446,-0.92 1.321,-1.774 -0.115,-0.779 -0.784,-1.339 -1.548,-1.339 -0.075,0 -0.15,0.006 -0.228,0.017 M 7.4,-11.672 c -0.782,0.368 -1.115,1.301 -0.747,2.082 h 0.002 c 0.368,0.781 1.301,1.115 2.082,0.747 0.781,-0.37 1.115,-1.303 0.745,-2.084 -0.267,-0.564 -0.829,-0.896 -1.415,-0.896 -0.223,0 -0.451,0.049 -0.667,0.151 m -13.228,-0.205 c -0.464,0.73 -0.248,1.695 0.48,2.159 0.73,0.464 1.697,0.247 2.16,-0.482 0.463,-0.728 0.248,-1.696 -0.481,-2.159 -0.261,-0.165 -0.551,-0.245 -0.838,-0.245 -0.518,0 -1.024,0.257 -1.321,0.727 m 8.883,-2.52 c -0.351,0.79 0.005,1.713 0.794,2.065 0.789,0.352 1.713,-0.004 2.065,-0.794 0.35,-0.789 -0.004,-1.713 -0.794,-2.064 -0.207,-0.093 -0.422,-0.136 -0.636,-0.136 -0.598,0 -1.17,0.346 -1.429,0.929 m -4.026,-1.172 c -0.827,0.251 -1.295,1.124 -1.044,1.95 0.248,0.828 1.122,1.294 1.95,1.046 0.826,-0.251 1.294,-1.124 1.044,-1.952 -0.204,-0.675 -0.825,-1.113 -1.497,-1.113 -0.149,0 -0.302,0.024 -0.453,0.069" /></g><g
           transform="translate(23.1103,159.2198)"
           id="g58"><path
             id="path60"
             style="fill:#ffffff;fill-opacity:1;fill-rule:nonzero;stroke:none"
             d="m 0,0 h -7.396 c -0.667,0 -1.208,0.541 -1.208,1.209 0,0.667 0.541,1.208 1.208,1.208 H 0 C 0.667,2.417 1.21,1.876 1.21,1.209 1.21,0.541 0.667,0 0,0" /></g><g
           transform="translate(19.3418,155.4502)"
           id="g62"><path
             id="path64"
             style="fill:#ffffff;fill-opacity:1;fill-rule:nonzero;stroke:none"
             d="m 0,0 c -0.667,0 -1.209,0.542 -1.209,1.209 v 7.395 c 0,0.667 0.542,1.209 1.209,1.209 0.667,0 1.209,-0.542 1.209,-1.209 V 1.209 C 1.209,0.542 0.667,0 0,0" /></g><g
           transform="translate(8.6045,3.7686)"
           id="g66"><path
             id="path68"
             style="fill:#ffffff;fill-opacity:1;fill-rule:nonzero;stroke:none"
             d="m 0,0 h -7.396 c -0.667,0 -1.208,0.541 -1.208,1.209 0,0.668 0.541,1.209 1.208,1.209 H 0 C 0.667,2.418 1.209,1.877 1.209,1.209 1.209,0.541 0.667,0 0,0" /></g><g
           transform="translate(4.8349)"
           id="g70"><path
             id="path72"
             style="fill:#ffffff;fill-opacity:1;fill-rule:nonzero;stroke:none"
             d="m 0,0 c -0.667,0 -1.209,0.541 -1.209,1.209 v 7.395 c 0,0.667 0.542,1.209 1.209,1.209 0.667,0 1.209,-0.542 1.209,-1.209 V 1.209 C 1.209,0.541 0.667,0 0,0" /></g><g
           transform="translate(218.3848,3.7686)"
           id="g74"><path
             id="path76"
             style="fill:#ffffff;fill-opacity:1;fill-rule:nonzero;stroke:none"
             d="m 0,0 h -7.396 c -0.667,0 -1.208,0.541 -1.208,1.209 0,0.668 0.541,1.209 1.208,1.209 H 0 C 0.668,2.418 1.209,1.877 1.209,1.209 1.209,0.541 0.668,0 0,0" /></g><g
           transform="translate(214.6152)"
           id="g78"><path
             id="path80"
             style="fill:#ffffff;fill-opacity:1;fill-rule:nonzero;stroke:none"
             d="m 0,0 c -0.668,0 -1.209,0.541 -1.209,1.209 v 7.395 c 0,0.667 0.541,1.209 1.209,1.209 0.667,0 1.209,-0.542 1.209,-1.209 V 1.209 C 1.209,0.541 0.667,0 0,0" /></g><g
           transform="translate(121.1553,141.126)"
           id="g82"><path
             id="path84"
             style="fill:#ffffff;fill-opacity:1;fill-rule:nonzero;stroke:none"
             d="m 0,0 c -1.525,0 -2.768,-1.241 -2.768,-2.767 v -127.375 c 0,-1.525 1.243,-2.766 2.768,-2.766 h 63.475 c 1.525,0 2.765,1.241 2.765,2.766 V -2.767 C 66.24,-1.241 65,0 63.475,0 Z M 63.475,-135.326 H 0 c -2.859,0 -5.186,2.326 -5.186,5.184 V -2.767 c 0,2.859 2.327,5.185 5.186,5.185 h 63.475 c 2.858,0 5.183,-2.326 5.183,-5.185 v -127.375 c 0,-2.858 -2.325,-5.184 -5.183,-5.184" /></g><g
           transform="translate(188.6601,123.0948)"
           id="g86"><path
             id="path88"
             style="fill:#ffffff;fill-opacity:1;fill-rule:nonzero;stroke:none"
             d="m 0,0 h -71.396 c -0.668,0 -1.209,0.541 -1.209,1.209 0,0.667 0.541,1.209 1.209,1.209 H 0 C 0.668,2.418 1.209,1.876 1.209,1.209 1.209,0.541 0.668,0 0,0" /></g><g
           transform="translate(187.9482,23.9649)"
           id="g90"><path
             id="path92"
             style="fill:#ffffff;fill-opacity:1;fill-rule:nonzero;stroke:none"
             d="m 0,0 h -70.686 c -0.668,0 -1.209,0.541 -1.209,1.208 0,0.668 0.541,1.209 1.209,1.209 H 0 C 0.667,2.417 1.209,1.876 1.209,1.208 1.209,0.541 0.667,0 0,0" /></g><g
           transform="translate(159.3623,132.0547)"
           id="g94"><path
             id="path96"
             style="fill:#ffffff;fill-opacity:1;fill-rule:nonzero;stroke:none"
             d="m 0,0 h -12.658 c -0.668,0 -1.209,0.541 -1.209,1.209 0,0.667 0.541,1.209 1.209,1.209 H 0 C 0.667,2.418 1.207,1.876 1.207,1.209 1.207,0.541 0.667,0 0,0" /></g><g
           transform="translate(152.9736,18.0069)"
           id="g98"><path
             id="path100"
             style="fill:#ffffff;fill-opacity:1;fill-rule:nonzero;stroke:none"
             d="m 0,0 c -1.092,0 -1.979,-0.888 -1.979,-1.979 0,-1.092 0.887,-1.981 1.979,-1.981 1.093,0 1.98,0.889 1.98,1.981 C 1.98,-0.888 1.093,0 0,0 m 0,-6.378 c -2.425,0 -4.396,1.973 -4.396,4.399 0,2.424 1.971,4.397 4.396,4.397 2.426,0 4.398,-1.973 4.398,-4.397 0,-2.426 -1.972,-4.399 -4.398,-4.399" /></g><path
           id="path102"
           style="fill:#ffffff;fill-opacity:1;fill-rule:nonzero;stroke:none"
           d="m 125.271,57.808 h 20.085 v 11.908 h -20.085 z m 21.294,-2.418 h -22.503 c -0.668,0 -1.209,0.541 -1.209,1.209 v 14.325 c 0,0.668 0.541,1.209 1.209,1.209 h 22.503 c 0.668,0 1.209,-0.541 1.209,-1.209 V 56.599 c 0,-0.668 -0.541,-1.209 -1.209,-1.209" /><path
           id="path104"
           style="fill:#ffffff;fill-opacity:1;fill-rule:nonzero;stroke:none"
           d="M 160.515,57.808 H 180.6 v 11.908 h -20.085 z m 21.294,-2.418 h -22.503 c -0.668,0 -1.209,0.541 -1.209,1.209 v 14.325 c 0,0.668 0.541,1.209 1.209,1.209 h 22.503 c 0.668,0 1.209,-0.541 1.209,-1.209 V 56.599 c 0,-0.668 -0.541,-1.209 -1.209,-1.209" /><g
           transform="translate(181.6914,47.1465)"
           id="g106"><path
             id="path108"
             style="fill:#ffffff;fill-opacity:1;fill-rule:nonzero;stroke:none"
             d="m 0,0 h -57.743 c -0.668,0 -1.209,0.542 -1.209,1.209 0,0.668 0.541,1.209 1.209,1.209 H 0 C 0.667,2.418 1.209,1.877 1.209,1.209 1.209,0.542 0.667,0 0,0" /></g><g
           transform="translate(181.6914,39.3242)"
           id="g110"><path
             id="path112"
             style="fill:#ffffff;fill-opacity:1;fill-rule:nonzero;stroke:none"
             d="m 0,0 h -57.743 c -0.668,0 -1.209,0.542 -1.209,1.209 0,0.668 0.541,1.209 1.209,1.209 H 0 C 0.667,2.418 1.209,1.877 1.209,1.209 1.209,0.542 0.667,0 0,0" /></g><g
           transform="translate(181.6914,31.6446)"
           id="g114"><path
             id="path116"
             style="fill:#ffffff;fill-opacity:1;fill-rule:nonzero;stroke:none"
             d="m 0,0 h -57.743 c -0.668,0 -1.209,0.541 -1.209,1.209 0,0.668 0.541,1.209 1.209,1.209 H 0 C 0.667,2.418 1.209,1.877 1.209,1.209 1.209,0.541 0.667,0 0,0" /></g><path
           id="path118"
           style="fill:#ffffff;fill-opacity:1;fill-rule:nonzero;stroke:none"
           d="m 125.271,80.427 h 55.328 v 34.832 h -55.328 z m 56.538,-2.419 h -57.747 c -0.668,0 -1.209,0.542 -1.209,1.209 v 37.25 c 0,0.668 0.541,1.208 1.209,1.208 h 57.747 c 0.668,0 1.209,-0.54 1.209,-1.208 v -37.25 c 0,-0.667 -0.541,-1.209 -1.209,-1.209" /><g
           transform="translate(171.1045,78.8907)"
           id="g120"><path
             id="path122"
             style="fill:#ffffff;fill-opacity:1;fill-rule:nonzero;stroke:none"
             d="M 0,0 C -0.311,0 -0.619,0.118 -0.854,0.354 L -26.166,25.665 -46.188,5.644 c -0.471,-0.472 -1.238,-0.472 -1.709,0 -0.472,0.472 -0.472,1.238 0,1.71 l 20.876,20.875 c 0.226,0.228 0.535,0.355 0.855,0.355 0.319,0 0.628,-0.127 0.854,-0.355 L 0.854,2.063 C 1.326,1.592 1.326,0.826 0.854,0.354 0.618,0.118 0.31,0 0,0" /></g><g
           transform="translate(162.8389,87.1563)"
           id="g124"><path
             id="path126"
             style="fill:#ffffff;fill-opacity:1;fill-rule:nonzero;stroke:none"
             d="m 0,0 c -0.311,0 -0.618,0.118 -0.854,0.354 -0.473,0.472 -0.473,1.238 0,1.709 l 9.146,9.148 c 0.228,0.227 0.533,0.352 0.854,0.352 0.322,0 0.628,-0.125 0.856,-0.352 l 8.98,-8.982 c 0.473,-0.472 0.473,-1.238 0,-1.709 -0.47,-0.473 -1.237,-0.473 -1.709,0 L 9.146,8.646 0.854,0.354 C 0.618,0.118 0.31,0 0,0" /></g><g
           transform="translate(163.0234,109.3077)"
           id="g128"><path
             id="path130"
             style="fill:#ffffff;fill-opacity:1;fill-rule:nonzero;stroke:none"
             d="m 0,0 c -1.304,0 -2.364,-1.062 -2.364,-2.366 0,-1.305 1.06,-2.366 2.364,-2.366 1.306,0 2.366,1.061 2.366,2.366 C 2.366,-1.062 1.306,0 0,0 m 0,-7.15 c -2.638,0 -4.782,2.146 -4.782,4.784 0,2.637 2.144,4.784 4.782,4.784 2.64,0 4.784,-2.147 4.784,-4.784 C 4.784,-5.004 2.64,-7.15 0,-7.15" /></g><g
           transform="translate(104.748,15.0039)"
           id="g132"><path
             id="path134"
             style="fill:#ffffff;fill-opacity:1;fill-rule:nonzero;stroke:none"
             d="m 0,0 h -85.265 c -0.589,0 -1.065,0.478 -1.065,1.067 v 104.677 c 0,0.589 0.476,1.067 1.065,1.067 h 15.005 c 0.59,0 1.068,-0.478 1.068,-1.067 0,-0.59 -0.478,-1.067 -1.068,-1.067 H -84.197 V 2.134 H 0 C 0.589,2.134 1.065,1.656 1.065,1.067 1.065,0.478 0.589,0 0,0" /></g><g
           transform="translate(57.956,28.2315)"
           id="g136"><path
             id="path138"
             style="fill:#ffffff;fill-opacity:1;fill-rule:nonzero;stroke:none"
             d="m 0,0 h -25.956 c -0.59,0 -1.066,0.478 -1.066,1.065 v 21.831 c 0,0.59 0.476,1.069 1.066,1.069 0.589,0 1.066,-0.479 1.066,-1.069 V 2.133 H 0 C 0.589,2.133 1.066,1.655 1.066,1.065 1.066,0.478 0.589,0 0,0" /></g><g
           transform="translate(81.4228,28.2315)"
           id="g140"><path
             id="path142"
             style="fill:#ffffff;fill-opacity:1;fill-rule:nonzero;stroke:none"
             d="m 0,0 h -9.387 c -0.589,0 -1.067,0.478 -1.067,1.065 0,0.59 0.478,1.068 1.067,1.068 H 0 C 0.589,2.133 1.066,1.655 1.066,1.065 1.066,0.478 0.589,0 0,0" /></g><g
           transform="translate(7.2529,89.7432)"
           id="g144"><path
             id="path146"
             style="fill:#ffffff;fill-opacity:1;fill-rule:nonzero;stroke:none"
             d="m 0,0 c -0.589,0 -1.067,0.478 -1.067,1.066 v 40.606 c 0,0.589 0.478,1.066 1.067,1.066 h 15.573 c 0.59,0 1.067,-0.477 1.067,-1.066 0,-0.59 -0.477,-1.068 -1.067,-1.068 H 1.066 V 1.066 C 1.066,0.478 0.589,0 0,0" /></g></g></g></g></svg>