<?xml version="1.0" encoding="UTF-8" standalone="no"?>
<svg
   xmlns:dc="http://purl.org/dc/elements/1.1/"
   xmlns:cc="http://creativecommons.org/ns#"
   xmlns:rdf="http://www.w3.org/1999/02/22-rdf-syntax-ns#"
   xmlns:svg="http://www.w3.org/2000/svg"
   xmlns="http://www.w3.org/2000/svg"
   viewBox="0 0 154.33333 223.11467"
   height="223.11467"
   width="154.33333"
   xml:space="preserve"
   id="svg2"
   version="1.1"><metadata
     id="metadata8"><rdf:RDF><cc:Work
         rdf:about=""><dc:format>image/svg+xml</dc:format><dc:type
           rdf:resource="http://purl.org/dc/dcmitype/StillImage" /></cc:Work></rdf:RDF></metadata><defs
     id="defs6"><clipPath
       id="clipPath18"
       clipPathUnits="userSpaceOnUse"><path
         id="path16"
         d="M 0,167.336 H 115.75 V 0 H 0 Z" /></clipPath></defs><g
     transform="matrix(1.3333333,0,0,-1.3333333,0,223.11467)"
     id="g10"><g
       id="g12"><g
         clip-path="url(#clipPath18)"
         id="g14"><path
           id="path20"
           style="fill:#27a4dd;fill-opacity:1;fill-rule:nonzero;stroke:none"
           d="M 24.242,64.902 H 35.777 V 76.433 H 24.242 Z M 96.211,35.258 c 0,2.207 -1.789,4 -4,4 H 54.102 c -2.211,0 -4,-1.793 -4,-4 0,-2.211 1.789,-4 4,-4 h 38.109 c 2.211,0 4,1.789 4,4 m -52.434,79.855 c 0,2.211 -1.793,4 -4,4 H 20.242 c -2.211,0 -4,-1.789 -4,-4 V 95.582 c 0,-2.211 1.789,-4 4,-4 h 19.535 c 2.207,0 4,1.789 4,4 z m 0,-34.679 c 0,2.211 -1.793,4 -4,4 H 20.242 c -2.211,0 -4,-1.789 -4,-4 V 60.902 c 0,-2.211 1.789,-4 4,-4 h 19.535 c 2.207,0 4,1.789 4,4 z m 0,-34.68 c 0,2.207 -1.793,4 -4,4 H 20.242 c -2.211,0 -4,-1.793 -4,-4 V 26.219 c 0,-2.207 1.789,-4 4,-4 h 19.535 c 2.207,0 4,1.793 4,4 z m 6.325,24.582 c 0,-2.207 1.789,-4 4,-4 h 32.086 c 2.21,0 4,1.793 4,4 0,2.207 -1.79,4 -4,4 H 54.102 c -2.211,0 -4,-1.789 -4,-4 m 0,35.078 c 0,-2.207 1.789,-4 4,-4 h 36.105 c 2.207,0 4,1.793 4,4 0,2.211 -1.793,4 -4,4 H 54.102 c -2.211,0 -4,-1.789 -4,-4 m 65.648,24.652 V 16.02 C 115.75,7.188 108.566,0 99.73,0 H 16.02 C 7.188,0 0,7.188 0,16.02 v 114.046 c 0,8.836 7.188,16.024 16.02,16.024 h 8.871 c 0.164,-5.629 4.781,-10.164 10.449,-10.164 h 45.07 c 5.668,0 10.289,4.535 10.449,10.164 h 8.871 c 8.836,0 16.02,-7.188 16.02,-16.024 M 24.242,99.582 h 11.535 v 11.531 H 24.242 Z m 0,-69.363 H 35.777 V 41.754 H 24.242 Z m 8.633,116.172 v 6.218 c 0,1.356 1.105,2.461 2.465,2.461 h 3.957 c 4.148,0 7.937,2.524 9.648,6.426 1.555,3.547 5.063,5.84 8.93,5.84 3.867,0 7.375,-2.293 8.93,-5.84 1.711,-3.902 5.496,-6.422 9.648,-6.422 h 3.957 c 1.36,0 2.465,-1.105 2.465,-2.465 v -6.218 c 0,-1.36 -1.105,-2.465 -2.465,-2.465 H 35.34 c -1.36,0 -2.465,1.105 -2.465,2.465" /></g></g></g></svg>