<?xml version="1.0" encoding="UTF-8" standalone="no"?>
<svg
   xmlns:dc="http://purl.org/dc/elements/1.1/"
   xmlns:cc="http://creativecommons.org/ns#"
   xmlns:rdf="http://www.w3.org/1999/02/22-rdf-syntax-ns#"
   xmlns:svg="http://www.w3.org/2000/svg"
   xmlns="http://www.w3.org/2000/svg"
   viewBox="0 0 256.56534 203.01199"
   height="203.01199"
   width="256.56534"
   xml:space="preserve"
   id="svg2"
   version="1.1"><metadata
     id="metadata8"><rdf:RDF><cc:Work
         rdf:about=""><dc:format>image/svg+xml</dc:format><dc:type
           rdf:resource="http://purl.org/dc/dcmitype/StillImage" /></cc:Work></rdf:RDF></metadata><defs
     id="defs6"><clipPath
       id="clipPath18"
       clipPathUnits="userSpaceOnUse"><path
         id="path16"
         d="M 0,152.259 H 192.424 V 0 H 0 Z" /></clipPath><clipPath
       id="clipPath26"
       clipPathUnits="userSpaceOnUse"><path
         id="path24"
         d="M 0.850006,104.23 H 20.232 V 88.7709 H 0.850006 Z" /></clipPath><clipPath
       id="clipPath38"
       clipPathUnits="userSpaceOnUse"><path
         id="path36"
         d="m 94.818,85.9439 h 8.749 v -8.749 h -8.749 z" /></clipPath><clipPath
       id="clipPath50"
       clipPathUnits="userSpaceOnUse"><path
         id="path48"
         d="M 3.146,136.737 H 17.937 V 104.23 H 3.146 Z" /></clipPath></defs><g
     transform="matrix(1.3333333,0,0,-1.3333333,0,203.012)"
     id="g10"><g
       id="g12"><g
         clip-path="url(#clipPath18)"
         id="g14"><g
           id="g20"><g
             id="g22" /><g
             id="g30"><g
               style="opacity:0.5"
               id="g28"
               clip-path="url(#clipPath26)" /></g></g><g
           id="g32"><g
             id="g34" /><g
             id="g42"><g
               style="opacity:0.5"
               id="g40"
               clip-path="url(#clipPath38)" /></g></g><g
           id="g44"><g
             id="g46" /><g
             id="g54"><g
               style="opacity:0.5"
               id="g52"
               clip-path="url(#clipPath50)" /></g></g><g
           transform="translate(27.7208,7.6551)"
           id="g56"><path
             id="path58"
             style="fill:#ffffff;fill-opacity:1;fill-rule:nonzero;stroke:none"
             d="m 0,0 v -1.635 c 0,-2.382 1.937,-4.319 4.318,-4.319 h 128.673 c 2.382,0 4.321,1.937 4.321,4.319 V 0 Z M 132.991,-7.655 H 4.318 c -3.318,0 -6.019,2.7 -6.019,6.02 v 2.486 c 0,0.469 0.381,0.85 0.849,0.85 h 139.013 c 0.471,0 0.852,-0.381 0.852,-0.85 v -2.486 c 0,-3.32 -2.701,-6.02 -6.022,-6.02" /></g><g
           transform="translate(106.1427,3.6785)"
           id="g60"><path
             id="path62"
             style="fill:#ffffff;fill-opacity:1;fill-rule:nonzero;stroke:none"
             d="m 0,0 h -19.562 c -0.47,0 -0.851,0.381 -0.851,0.851 v 3.888 c 0,0.47 0.381,0.851 0.851,0.851 0.468,0 0.849,-0.381 0.849,-0.851 V 1.701 h 17.862 v 3.038 c 0,0.47 0.381,0.851 0.851,0.851 0.471,0 0.852,-0.381 0.852,-0.851 V 0.851 C 0.852,0.381 0.471,0 0,0" /></g><g
           transform="translate(156.3282,8.6609)"
           id="g64"><path
             id="path66"
             style="fill:#ffffff;fill-opacity:1;fill-rule:nonzero;stroke:none"
             d="m 0,0 c -0.47,0 -0.851,0.381 -0.851,0.851 v 65.963 c 0,2.6 -2.067,4.636 -4.706,4.636 h -10.24 c -0.47,0 -0.849,0.381 -0.849,0.851 0,0.47 0.379,0.85 0.849,0.85 h 10.24 c 3.593,0 6.409,-2.783 6.409,-6.337 V 0.851 C 0.852,0.381 0.471,0 0,0" /></g><g
           transform="translate(36.2716,8.0535)"
           id="g68"><path
             id="path70"
             style="fill:#ffffff;fill-opacity:1;fill-rule:nonzero;stroke:none"
             d="m 0,0 c -0.47,0 -0.851,0.381 -0.851,0.851 v 66.571 c 0,1.719 0.683,3.322 1.922,4.515 1.221,1.175 2.843,1.822 4.569,1.822 h 10.643 c 0.47,0 0.852,-0.381 0.852,-0.851 0,-0.47 -0.382,-0.85 -0.852,-0.85 H 5.64 c -2.686,0 -4.788,-2.037 -4.788,-4.636 V 0.851 C 0.852,0.381 0.471,0 0,0" /></g><g
           transform="translate(44.171,14.1287)"
           id="g72"><path
             id="path74"
             style="fill:#ffffff;fill-opacity:1;fill-rule:nonzero;stroke:none"
             d="m 0,0 c -0.227,0 -0.441,0.073 -0.602,0.232 -0.16,0.16 -0.25,0.359 -0.25,0.585 v 58.118 c 0,0.469 0.381,0.85 0.852,0.85 h 8.385 c 0.469,0 0.849,-0.381 0.849,-0.85 0,-0.47 -0.38,-0.851 -0.849,-0.851 H 0.851 V 1.668 l 102.678,0.06 V 58.084 H 96.36 c -0.468,0 -0.849,0.381 -0.849,0.851 0,0.469 0.381,0.85 0.849,0.85 h 8.021 c 0.47,0 0.849,-0.381 0.849,-0.85 V 0.878 c 0,-0.47 -0.378,-0.834 -0.848,-0.834 L 0.001,0 Z" /></g><g
           transform="translate(20.1104,53.864)"
           id="g76"><path
             id="path78"
             style="fill:#ffffff;fill-opacity:1;fill-rule:nonzero;stroke:none"
             d="m 0,0 c -0.47,0 -0.851,0.381 -0.851,0.851 v 5.468 c 0,0.47 0.381,0.851 0.851,0.851 0.471,0 0.852,-0.381 0.852,-0.851 V 0.851 C 0.852,0.381 0.471,0 0,0" /></g><g
           transform="translate(22.9053,56.5379)"
           id="g80"><path
             id="path82"
             style="fill:#ffffff;fill-opacity:1;fill-rule:nonzero;stroke:none"
             d="m 0,0 h -5.468 c -0.469,0 -0.85,0.381 -0.85,0.851 0,0.469 0.381,0.85 0.85,0.85 H 0 C 0.471,1.701 0.852,1.32 0.852,0.851 0.852,0.381 0.471,0 0,0" /></g><g
           transform="translate(161.3106,97.366)"
           id="g84"><path
             id="path86"
             style="fill:#ffffff;fill-opacity:1;fill-rule:nonzero;stroke:none"
             d="m 0,0 c -0.47,0 -0.851,0.381 -0.851,0.852 v 5.467 c 0,0.47 0.381,0.851 0.851,0.851 0.471,0 0.852,-0.381 0.852,-0.851 V 0.852 C 0.852,0.381 0.471,0 0,0" /></g><g
           transform="translate(164.1055,100.0398)"
           id="g88"><path
             id="path90"
             style="fill:#ffffff;fill-opacity:1;fill-rule:nonzero;stroke:none"
             d="m 0,0 h -5.469 c -0.468,0 -0.849,0.381 -0.849,0.851 0,0.469 0.381,0.85 0.849,0.85 H 0 C 0.471,1.701 0.852,1.32 0.852,0.851 0.852,0.381 0.471,0 0,0" /></g><g
           transform="translate(78.6807,120.6971)"
           id="g92"><path
             id="path94"
             style="fill:#ffffff;fill-opacity:1;fill-rule:nonzero;stroke:none"
             d="m 0,0 c -0.47,0 -0.851,0.381 -0.851,0.851 v 5.468 c 0,0.47 0.381,0.851 0.851,0.851 0.471,0 0.852,-0.381 0.852,-0.851 V 0.851 C 0.852,0.381 0.471,0 0,0" /></g><g
           transform="translate(81.4757,123.3709)"
           id="g96"><path
             id="path98"
             style="fill:#ffffff;fill-opacity:1;fill-rule:nonzero;stroke:none"
             d="m 0,0 h -5.469 c -0.468,0 -0.849,0.381 -0.849,0.851 0,0.469 0.381,0.85 0.849,0.85 H 0 C 0.471,1.701 0.852,1.32 0.852,0.851 0.852,0.381 0.471,0 0,0" /></g><g
           transform="translate(35.0303,113.5838)"
           id="g100"><path
             id="path102"
             style="fill:#ffffff;fill-opacity:1;fill-rule:nonzero;stroke:none"
             d="M 0,0 C 0,0.671 0.543,1.215 1.216,1.215 1.886,1.215 2.431,0.671 2.431,0 2.431,-0.672 1.886,-1.215 1.216,-1.215 0.543,-1.215 0,-0.672 0,0 m 4.124,-2.347 c -0.494,0.452 -0.527,1.222 -0.073,1.718 0.453,0.494 1.22,0.526 1.717,0.073 0.494,-0.453 0.527,-1.22 0.074,-1.716 -0.24,-0.261 -0.569,-0.394 -0.897,-0.394 -0.295,0 -0.589,0.104 -0.821,0.319 m -7.692,-0.16 c -0.479,0.472 -0.484,1.24 -0.011,1.719 0.471,0.476 1.239,0.481 1.718,0.011 0.476,-0.473 0.481,-1.244 0.009,-1.72 -0.238,-0.24 -0.55,-0.361 -0.865,-0.361 -0.307,0 -0.616,0.117 -0.851,0.351 m 9.089,-2.837 c -0.027,0.671 0.498,1.226 1.167,1.25 0.671,0.025 1.236,-0.484 1.259,-1.155 C 7.974,-5.92 7.449,-6.496 6.778,-6.496 H 6.733 c -0.65,0 -1.188,0.498 -1.212,1.152 m -11.044,-0.29 c -0.008,0.671 0.529,1.235 1.2,1.242 0.671,0.009 1.22,-0.547 1.228,-1.219 0.009,-0.671 -0.527,-1.249 -1.199,-1.249 H -4.31 c -0.663,0 -1.207,0.56 -1.213,1.226 m 9.931,-4.557 c -0.488,0.459 -0.512,1.228 -0.054,1.717 0.459,0.49 1.23,0.514 1.718,0.054 0.49,-0.459 0.514,-1.228 0.055,-1.718 -0.239,-0.254 -0.564,-0.383 -0.887,-0.383 -0.299,0 -0.596,0.11 -0.832,0.33 m -7.87,-0.194 h 0.003 c -0.484,0.487 -0.498,1.239 -0.033,1.722 0.466,0.482 1.233,0.499 1.719,0.034 0.483,-0.466 0.498,-1.234 0.031,-1.718 -0.238,-0.248 -0.558,-0.375 -0.875,-0.375 -0.305,0 -0.609,0.094 -0.845,0.337 m 3.601,-0.664 c -0.018,0.67 0.512,1.215 1.183,1.231 0.671,0.016 1.23,-0.495 1.244,-1.165 0.019,-0.67 -0.512,-1.224 -1.183,-1.224 h -0.03 c -0.659,0 -1.2,0.498 -1.214,1.158" /></g><g
           transform="translate(124.4639,127.0721)"
           id="g104"><path
             id="path106"
             style="fill:#ffffff;fill-opacity:1;fill-rule:nonzero;stroke:none"
             d="M 0,0 C 0,0.671 0.544,1.215 1.217,1.215 1.888,1.215 2.432,0.671 2.432,0 2.432,-0.672 1.888,-1.215 1.217,-1.215 0.544,-1.215 0,-0.672 0,0 m 4.125,-2.347 c -0.494,0.452 -0.527,1.222 -0.073,1.717 0.453,0.495 1.219,0.526 1.717,0.074 0.494,-0.453 0.527,-1.22 0.074,-1.716 -0.239,-0.261 -0.569,-0.394 -0.897,-0.394 -0.294,0 -0.589,0.104 -0.821,0.319 m -7.692,-0.16 c -0.479,0.472 -0.484,1.24 -0.011,1.718 0.471,0.477 1.239,0.482 1.718,0.012 0.476,-0.474 0.481,-1.244 0.009,-1.72 -0.238,-0.241 -0.55,-0.361 -0.865,-0.361 -0.307,0 -0.616,0.117 -0.851,0.351 M 5.521,-5.344 C 5.495,-4.673 6.02,-4.118 6.689,-4.094 7.36,-4.069 7.925,-4.579 7.948,-5.249 7.976,-5.92 7.45,-6.496 6.779,-6.496 H 6.733 c -0.65,0 -1.187,0.496 -1.212,1.152 m -11.043,-0.29 c -0.008,0.67 0.529,1.235 1.2,1.242 0.671,0.009 1.221,-0.547 1.228,-1.219 0.009,-0.671 -0.527,-1.25 -1.199,-1.25 h -0.016 c -0.663,0 -1.207,0.561 -1.213,1.227 m 9.931,-4.557 c -0.488,0.459 -0.513,1.228 -0.054,1.717 0.459,0.49 1.229,0.513 1.718,0.054 0.489,-0.459 0.515,-1.228 0.054,-1.718 -0.238,-0.254 -0.563,-0.383 -0.886,-0.383 -0.299,0 -0.596,0.11 -0.832,0.33 m -7.868,-0.187 v 0 c -0.482,0.466 -0.498,1.235 -0.032,1.719 0.466,0.483 1.233,0.497 1.719,0.031 0.482,-0.465 0.498,-1.234 0.031,-1.718 -0.238,-0.248 -0.558,-0.372 -0.875,-0.372 -0.304,0 -0.608,0.114 -0.843,0.34 M 0.14,-11.05 c -0.018,0.671 0.513,1.216 1.183,1.232 0.671,0.016 1.23,-0.495 1.245,-1.165 0.017,-0.671 -0.513,-1.224 -1.184,-1.224 h -0.03 c -0.659,0 -1.2,0.498 -1.214,1.157" /></g><g
           transform="translate(180.9688,20.5037)"
           id="g108"><path
             id="path110"
             style="fill:#ffffff;fill-opacity:1;fill-rule:nonzero;stroke:none"
             d="M 0,0 C 0,0.671 0.544,1.215 1.216,1.215 1.887,1.215 2.431,0.671 2.431,0 2.431,-0.672 1.887,-1.215 1.216,-1.215 0.544,-1.215 0,-0.672 0,0 m 4.124,-2.347 c -0.494,0.452 -0.526,1.223 -0.073,1.717 0.453,0.495 1.22,0.529 1.716,0.074 0.496,-0.453 0.528,-1.221 0.075,-1.716 -0.239,-0.261 -0.569,-0.394 -0.897,-0.394 -0.294,0 -0.588,0.104 -0.821,0.319 m -7.692,-0.16 c -0.479,0.472 -0.484,1.24 -0.011,1.718 0.472,0.477 1.239,0.482 1.718,0.01 0.476,-0.471 0.481,-1.242 0.01,-1.718 -0.238,-0.24 -0.55,-0.361 -0.865,-0.361 -0.306,0 -0.615,0.117 -0.852,0.351 m 9.089,-2.837 c -0.027,0.671 0.499,1.226 1.168,1.25 0.67,0.026 1.236,-0.484 1.259,-1.155 C 7.975,-5.92 7.45,-6.496 6.779,-6.496 H 6.734 c -0.651,0 -1.189,0.497 -1.213,1.152 m -11.044,-0.29 c -0.007,0.671 0.53,1.235 1.2,1.242 0.671,0.009 1.22,-0.547 1.229,-1.219 0.008,-0.671 -0.528,-1.249 -1.199,-1.249 H -4.31 c -0.663,0 -1.206,0.56 -1.213,1.226 m 9.931,-4.557 c -0.487,0.459 -0.512,1.228 -0.054,1.717 0.46,0.49 1.229,0.514 1.719,0.054 0.489,-0.459 0.514,-1.228 0.055,-1.718 -0.24,-0.254 -0.565,-0.383 -0.888,-0.383 -0.299,0 -0.596,0.11 -0.832,0.33 m -7.869,-0.186 v 0 c -0.481,0.465 -0.497,1.234 -0.03,1.718 0.465,0.483 1.233,0.497 1.718,0.031 0.482,-0.465 0.498,-1.234 0.033,-1.718 -0.24,-0.248 -0.56,-0.372 -0.877,-0.372 -0.303,0 -0.609,0.114 -0.844,0.341 M 0.14,-11.05 c -0.019,0.671 0.512,1.216 1.183,1.233 0.671,0.015 1.23,-0.496 1.244,-1.166 0.017,-0.671 -0.512,-1.224 -1.183,-1.224 h -0.03 c -0.66,0 -1.2,0.498 -1.214,1.157" /></g><g
           transform="translate(7.9317,20.5037)"
           id="g112"><path
             id="path114"
             style="fill:#ffffff;fill-opacity:1;fill-rule:nonzero;stroke:none"
             d="M 0,0 C 0,0.671 0.544,1.215 1.216,1.215 1.887,1.215 2.432,0.671 2.432,0 2.432,-0.672 1.887,-1.215 1.216,-1.215 0.544,-1.215 0,-0.672 0,0 m 4.124,-2.347 c -0.493,0.452 -0.526,1.223 -0.073,1.717 0.454,0.495 1.22,0.529 1.718,0.074 0.494,-0.453 0.527,-1.221 0.074,-1.716 -0.24,-0.261 -0.57,-0.394 -0.898,-0.394 -0.294,0 -0.588,0.104 -0.821,0.319 m -7.691,-0.16 c -0.479,0.472 -0.484,1.24 -0.012,1.718 0.472,0.477 1.24,0.482 1.719,0.01 0.476,-0.471 0.481,-1.242 0.009,-1.718 -0.238,-0.24 -0.55,-0.361 -0.865,-0.361 -0.307,0 -0.615,0.117 -0.851,0.351 m 9.088,-2.837 c -0.026,0.671 0.499,1.221 1.168,1.245 0.671,0.026 1.236,-0.453 1.259,-1.182 H 7.949 C 7.975,-5.889 7.45,-6.496 6.779,-6.496 H 6.733 c -0.65,0 -1.187,0.497 -1.212,1.152 m -11.043,-0.29 c -0.008,0.671 0.529,1.235 1.2,1.242 0.671,0.009 1.219,-0.547 1.228,-1.219 0.009,-0.671 -0.527,-1.249 -1.199,-1.249 h -0.016 c -0.664,0 -1.207,0.56 -1.213,1.226 m 9.931,-4.557 c -0.488,0.459 -0.513,1.228 -0.054,1.717 0.459,0.49 1.23,0.514 1.718,0.054 0.489,-0.459 0.514,-1.228 0.055,-1.718 -0.239,-0.254 -0.564,-0.383 -0.887,-0.383 -0.299,0 -0.596,0.11 -0.832,0.33 m -7.87,-0.186 v 0 c -0.481,0.465 -0.497,1.234 -0.03,1.718 0.466,0.483 1.233,0.497 1.718,0.031 0.484,-0.465 0.499,-1.234 0.033,-1.718 -0.239,-0.248 -0.559,-0.372 -0.876,-0.372 -0.305,0 -0.609,0.114 -0.845,0.341 M 0.14,-11.05 c -0.018,0.671 0.512,1.216 1.183,1.233 0.671,0.015 1.23,-0.496 1.244,-1.166 0.019,-0.671 -0.512,-1.224 -1.183,-1.224 h -0.03 c -0.659,0 -1.2,0.498 -1.214,1.157" /></g><g
           transform="translate(3.9971,105.0808)"
           id="g116"><path
             id="path118"
             style="fill:#ffffff;fill-opacity:1;fill-rule:nonzero;stroke:none"
             d="m 0,0 h 13.09 v 29.631 c 0,1.07 -0.224,2.106 -0.662,3.082 l -5.693,12.64 c -0.046,0.102 -0.13,0.124 -0.19,0.124 -0.064,0 -0.147,-0.022 -0.191,-0.124 L 0.66,32.713 C 0.223,31.737 0,30.701 0,29.631 Z M 13.939,-1.701 H -0.852 c -0.468,0 -0.849,0.381 -0.849,0.85 v 30.482 c 0,1.312 0.271,2.584 0.81,3.78 l 5.693,12.64 c 0.312,0.695 0.979,1.127 1.743,1.127 0.762,0 1.43,-0.432 1.741,-1.127 l 5.693,-12.64 c 0.539,-1.196 0.812,-2.468 0.812,-3.78 V -0.851 c 0,-0.469 -0.382,-0.85 -0.852,-0.85" /></g><g
           transform="translate(2.3555,103.3797)"
           id="g120"><path
             id="path122"
             style="fill:#ffffff;fill-opacity:1;fill-rule:nonzero;stroke:none"
             d="m 0,0 c -0.36,0 -0.654,-0.294 -0.654,-0.655 v -12.449 c 0,-0.361 0.294,-0.655 0.654,-0.655 h 16.37 c 0.361,0 0.655,0.294 0.655,0.655 V -0.655 C 17.025,-0.294 16.731,0 16.37,0 Z M 16.37,-15.46 H 0 c -1.299,0 -2.355,1.058 -2.355,2.356 v 12.449 c 0,1.299 1.056,2.356 2.355,2.356 h 16.37 c 1.301,0 2.358,-1.057 2.358,-2.356 v -12.449 c 0,-1.298 -1.057,-2.356 -2.358,-2.356" /></g><g
           transform="translate(17.3165,135.8865)"
           id="g124"><path
             id="path126"
             style="fill:#ffffff;fill-opacity:1;fill-rule:nonzero;stroke:none"
             d="m 0,0 h -13.366 c -0.471,0 -0.852,0.381 -0.852,0.851 0,0.469 0.381,0.85 0.852,0.85 H 0 C 0.47,1.701 0.851,1.32 0.851,0.851 0.851,0.381 0.47,0 0,0" /></g><g
           transform="translate(13.1846,144.0281)"
           id="g128"><path
             id="path130"
             style="fill:#ffffff;fill-opacity:1;fill-rule:nonzero;stroke:none"
             d="m 0,0 h -5.226 c -0.468,0 -0.849,0.381 -0.849,0.851 0,0.469 0.381,0.85 0.849,0.85 H 0 C 0.47,1.701 0.851,1.32 0.851,0.851 0.851,0.381 0.47,0 0,0" /></g><g
           transform="translate(4.6339,87.9197)"
           id="g132"><path
             id="path134"
             style="fill:#ffffff;fill-opacity:1;fill-rule:nonzero;stroke:none"
             d="M 0,0 V -5.587 C 0,-6.45 0.702,-7.153 1.565,-7.153 h 8.685 c 0.862,0 1.564,0.703 1.564,1.566 V 0 Z M 10.25,-8.854 H 1.565 c -1.8,0 -3.266,1.465 -3.266,3.267 v 6.438 c 0,0.469 0.381,0.85 0.849,0.85 h 13.518 c 0.47,0 0.851,-0.381 0.851,-0.85 v -6.438 c 0,-1.802 -1.466,-3.267 -3.267,-3.267" /></g><g
           transform="translate(10.2677,103.4422)"
           id="g136"><path
             id="path138"
             style="fill:#ffffff;fill-opacity:1;fill-rule:nonzero;stroke:none"
             d="m 0,0 c -0.47,0 -0.851,0.381 -0.851,0.851 v 9.599 c 0,0.47 0.381,0.851 0.851,0.851 0.471,0 0.852,-0.381 0.852,-0.851 V 0.851 C 0.852,0.381 0.471,0 0,0" /></g><g
           transform="translate(10.2677,125.5574)"
           id="g140"><path
             id="path142"
             style="fill:#ffffff;fill-opacity:1;fill-rule:nonzero;stroke:none"
             d="m 0,0 c -0.47,0 -0.851,0.381 -0.851,0.851 v 9.357 c 0,0.47 0.381,0.851 0.851,0.851 0.471,0 0.852,-0.381 0.852,-0.851 V 0.851 C 0.852,0.381 0.471,0 0,0" /></g><g
           transform="translate(3.7061,95.6648)"
           id="g144"><path
             id="path146"
             style="fill:#ffffff;fill-opacity:1;fill-rule:nonzero;stroke:none"
             d="m 0,0 h -2.309 c -0.468,0 -0.849,0.381 -0.849,0.851 0,0.47 0.381,0.85 0.849,0.85 H 0 c 0.471,0 0.852,-0.38 0.852,-0.85 C 0.852,0.381 0.471,0 0,0" /></g><g
           transform="translate(20.1104,95.6648)"
           id="g148"><path
             id="path150"
             style="fill:#ffffff;fill-opacity:1;fill-rule:nonzero;stroke:none"
             d="m 0,0 h -10.937 c -0.468,0 -0.849,0.381 -0.849,0.851 0,0.47 0.381,0.85 0.849,0.85 H 0 c 0.471,0 0.852,-0.38 0.852,-0.85 C 0.852,0.381 0.471,0 0,0" /></g><g
           transform="translate(175.253,149.908)"
           id="g152"><path
             id="path154"
             style="fill:#ffffff;fill-opacity:1;fill-rule:nonzero;stroke:none"
             d="m 0,0 c -0.935,0 -1.694,-0.76 -1.694,-1.695 v -101.413 c 0,-0.936 0.759,-1.697 1.694,-1.697 h 13.773 c 0.936,0 1.698,0.761 1.698,1.697 V -1.695 C 15.471,-0.76 14.709,0 13.773,0 Z M 13.773,-106.506 H 0 c -1.872,0 -3.396,1.525 -3.396,3.398 V -1.695 c 0,1.873 1.524,3.396 3.396,3.396 h 13.773 c 1.873,0 3.399,-1.523 3.399,-3.396 v -101.413 c 0,-1.873 -1.526,-3.398 -3.399,-3.398" /></g><g
           transform="translate(191.2032,142.6912)"
           id="g156"><path
             id="path158"
             style="fill:#ffffff;fill-opacity:1;fill-rule:nonzero;stroke:none"
             d="m 0,0 h -9.234 c -0.47,0 -0.852,0.381 -0.852,0.851 0,0.469 0.382,0.85 0.852,0.85 H 0 C 0.471,1.701 0.852,1.32 0.852,0.851 0.852,0.381 0.471,0 0,0" /></g><g
           transform="translate(191.2032,135.4002)"
           id="g160"><path
             id="path162"
             style="fill:#ffffff;fill-opacity:1;fill-rule:nonzero;stroke:none"
             d="m 0,0 h -4.253 c -0.47,0 -0.851,0.381 -0.851,0.851 0,0.469 0.381,0.85 0.851,0.85 H 0 C 0.471,1.701 0.852,1.32 0.852,0.851 0.852,0.381 0.471,0 0,0" /></g><g
           transform="translate(191.2032,128.4744)"
           id="g164"><path
             id="path166"
             style="fill:#ffffff;fill-opacity:1;fill-rule:nonzero;stroke:none"
             d="m 0,0 h -9.234 c -0.47,0 -0.852,0.381 -0.852,0.851 0,0.469 0.382,0.85 0.852,0.85 H 0 C 0.471,1.701 0.852,1.32 0.852,0.851 0.852,0.381 0.471,0 0,0" /></g><g
           transform="translate(191.2032,121.3045)"
           id="g168"><path
             id="path170"
             style="fill:#ffffff;fill-opacity:1;fill-rule:nonzero;stroke:none"
             d="m 0,0 h -4.253 c -0.47,0 -0.851,0.381 -0.851,0.851 0,0.469 0.381,0.85 0.851,0.85 H 0 C 0.471,1.701 0.852,1.32 0.852,0.851 0.852,0.381 0.471,0 0,0" /></g><g
           transform="translate(191.2032,114.1355)"
           id="g172"><path
             id="path174"
             style="fill:#ffffff;fill-opacity:1;fill-rule:nonzero;stroke:none"
             d="m 0,0 h -9.234 c -0.47,0 -0.852,0.381 -0.852,0.851 0,0.469 0.382,0.85 0.852,0.85 H 0 C 0.471,1.701 0.852,1.32 0.852,0.851 0.852,0.381 0.471,0 0,0" /></g><g
           transform="translate(191.2032,107.2088)"
           id="g176"><path
             id="path178"
             style="fill:#ffffff;fill-opacity:1;fill-rule:nonzero;stroke:none"
             d="m 0,0 h -4.253 c -0.47,0 -0.851,0.381 -0.851,0.851 0,0.469 0.381,0.85 0.851,0.85 H 0 C 0.471,1.701 0.852,1.32 0.852,0.851 0.852,0.381 0.471,0 0,0" /></g><g
           transform="translate(191.2032,100.0398)"
           id="g180"><path
             id="path182"
             style="fill:#ffffff;fill-opacity:1;fill-rule:nonzero;stroke:none"
             d="m 0,0 h -9.234 c -0.47,0 -0.852,0.381 -0.852,0.851 0,0.469 0.382,0.85 0.852,0.85 H 0 C 0.471,1.701 0.852,1.32 0.852,0.851 0.852,0.381 0.471,0 0,0" /></g><g
           transform="translate(191.2032,93.1131)"
           id="g184"><path
             id="path186"
             style="fill:#ffffff;fill-opacity:1;fill-rule:nonzero;stroke:none"
             d="m 0,0 h -4.253 c -0.47,0 -0.851,0.381 -0.851,0.851 0,0.47 0.381,0.85 0.851,0.85 H 0 c 0.471,0 0.852,-0.38 0.852,-0.85 C 0.852,0.381 0.471,0 0,0" /></g><g
           transform="translate(191.2032,85.9441)"
           id="g188"><path
             id="path190"
             style="fill:#ffffff;fill-opacity:1;fill-rule:nonzero;stroke:none"
             d="m 0,0 h -9.234 c -0.47,0 -0.852,0.381 -0.852,0.851 0,0.469 0.382,0.85 0.852,0.85 H 0 C 0.471,1.701 0.852,1.32 0.852,0.851 0.852,0.381 0.471,0 0,0" /></g><g
           transform="translate(191.2032,78.6531)"
           id="g192"><path
             id="path194"
             style="fill:#ffffff;fill-opacity:1;fill-rule:nonzero;stroke:none"
             d="m 0,0 h -4.253 c -0.47,0 -0.851,0.381 -0.851,0.851 0,0.469 0.381,0.85 0.851,0.85 H 0 C 0.471,1.701 0.852,1.32 0.852,0.851 0.852,0.381 0.471,0 0,0" /></g><g
           transform="translate(191.2032,71.6053)"
           id="g196"><path
             id="path198"
             style="fill:#ffffff;fill-opacity:1;fill-rule:nonzero;stroke:none"
             d="m 0,0 h -9.234 c -0.47,0 -0.852,0.381 -0.852,0.851 0,0.469 0.382,0.85 0.852,0.85 H 0 C 0.471,1.701 0.852,1.32 0.852,0.851 0.852,0.381 0.471,0 0,0" /></g><g
           transform="translate(191.2032,64.5574)"
           id="g200"><path
             id="path202"
             style="fill:#ffffff;fill-opacity:1;fill-rule:nonzero;stroke:none"
             d="m 0,0 h -4.253 c -0.47,0 -0.851,0.381 -0.851,0.851 0,0.469 0.381,0.85 0.851,0.85 H 0 C 0.471,1.701 0.852,1.32 0.852,0.851 0.852,0.381 0.471,0 0,0" /></g><g
           transform="translate(191.2032,57.2664)"
           id="g204"><path
             id="path206"
             style="fill:#ffffff;fill-opacity:1;fill-rule:nonzero;stroke:none"
             d="m 0,0 h -9.234 c -0.47,0 -0.852,0.381 -0.852,0.851 0,0.469 0.382,0.85 0.852,0.85 H 0 C 0.471,1.701 0.852,1.32 0.852,0.851 0.852,0.381 0.471,0 0,0" /></g><g
           transform="translate(191.2032,50.2185)"
           id="g208"><path
             id="path210"
             style="fill:#ffffff;fill-opacity:1;fill-rule:nonzero;stroke:none"
             d="m 0,0 h -4.253 c -0.47,0 -0.851,0.381 -0.851,0.851 0,0.469 0.381,0.85 0.851,0.85 H 0 C 0.471,1.701 0.852,1.32 0.852,0.851 0.852,0.381 0.471,0 0,0" /></g><g
           transform="translate(177.9854,50.365)"
           id="g212"><path
             id="path214"
             style="fill:#ffffff;fill-opacity:1;fill-rule:nonzero;stroke:none"
             d="m 0,0 c -0.584,0 -1.059,-0.475 -1.059,-1.059 0,-0.584 0.475,-1.058 1.059,-1.058 0.583,0 1.059,0.474 1.059,1.058 C 1.059,-0.475 0.583,0 0,0 m 0,-3.818 c -1.521,0 -2.76,1.238 -2.76,2.759 0,1.522 1.239,2.76 2.76,2.76 1.521,0 2.76,-1.238 2.76,-2.76 C 2.76,-2.58 1.521,-3.818 0,-3.818" /></g><g
           transform="translate(55.7511,37.2166)"
           id="g216"><path
             id="path218"
             style="fill:#ffffff;fill-opacity:1;fill-rule:nonzero;stroke:none"
             d="m 0,0 h -2.733 c -0.471,0 -0.853,0.381 -0.853,0.851 v 2.734 c 0,0.47 0.382,0.851 0.853,0.851 0.468,0 0.849,-0.381 0.849,-0.851 V 1.701 H 0 C 0.47,1.701 0.851,1.32 0.851,0.851 0.851,0.381 0.47,0 0,0" /></g><g
           transform="translate(68.0841,37.2166)"
           id="g220"><path
             id="path222"
             style="fill:#ffffff;fill-opacity:1;fill-rule:nonzero;stroke:none"
             d="m 0,0 h -5.046 c -0.47,0 -0.85,0.381 -0.85,0.851 0,0.469 0.38,0.85 0.85,0.85 H 0 C 0.471,1.701 0.852,1.32 0.852,0.851 0.852,0.381 0.471,0 0,0 M 12.335,0 H 7.289 c -0.47,0 -0.851,0.381 -0.851,0.851 0,0.469 0.381,0.85 0.851,0.85 h 5.046 c 0.471,0 0.852,-0.381 0.852,-0.85 C 13.187,0.381 12.806,0 12.335,0 m 12.334,0 h -5.046 c -0.47,0 -0.851,0.381 -0.851,0.851 0,0.469 0.381,0.85 0.851,0.85 h 5.046 c 0.471,0 0.852,-0.381 0.852,-0.85 C 25.521,0.381 25.14,0 24.669,0 m 12.334,0 h -5.046 c -0.47,0 -0.851,0.381 -0.851,0.851 0,0.469 0.381,0.85 0.851,0.85 h 5.046 c 0.471,0 0.851,-0.381 0.851,-0.85 C 37.854,0.381 37.474,0 37.003,0 m 12.334,0 h -5.046 c -0.47,0 -0.851,0.381 -0.851,0.851 0,0.469 0.381,0.85 0.851,0.85 h 5.046 c 0.471,0 0.851,-0.381 0.851,-0.85 C 50.188,0.381 49.808,0 49.337,0 m 12.335,0 h -5.047 c -0.47,0 -0.851,0.381 -0.851,0.851 0,0.469 0.381,0.85 0.851,0.85 h 5.047 c 0.47,0 0.849,-0.381 0.849,-0.85 C 62.521,0.381 62.142,0 61.672,0" /></g><g
           transform="translate(139.7774,37.2166)"
           id="g224"><path
             id="path226"
             style="fill:#ffffff;fill-opacity:1;fill-rule:nonzero;stroke:none"
             d="m 0,0 h -2.733 c -0.47,0 -0.852,0.381 -0.852,0.851 0,0.469 0.382,0.85 0.852,0.85 h 1.882 v 1.884 c 0,0.47 0.381,0.851 0.851,0.851 0.471,0 0.852,-0.381 0.852,-0.851 V 0.851 C 0.852,0.381 0.471,0 0,0" /></g><g
           transform="translate(139.7774,78.1658)"
           id="g228"><path
             id="path230"
             style="fill:#ffffff;fill-opacity:1;fill-rule:nonzero;stroke:none"
             d="m 0,0 c -0.47,0 -0.851,0.381 -0.851,0.851 v 6.034 c 0,0.469 0.381,0.85 0.851,0.85 0.471,0 0.852,-0.381 0.852,-0.85 V 0.851 C 0.852,0.381 0.471,0 0,0 m 0,-14.75 c -0.47,0 -0.851,0.381 -0.851,0.852 v 6.033 c 0,0.469 0.381,0.85 0.851,0.85 0.471,0 0.852,-0.381 0.852,-0.85 v -6.033 C 0.852,-14.369 0.471,-14.75 0,-14.75 m 0,-14.749 c -0.47,0 -0.851,0.381 -0.851,0.851 v 6.034 c 0,0.469 0.381,0.85 0.851,0.85 0.471,0 0.852,-0.381 0.852,-0.85 v -6.034 c 0,-0.47 -0.381,-0.851 -0.852,-0.851" /></g><g
           transform="translate(139.7774,92.9158)"
           id="g232"><path
             id="path234"
             style="fill:#ffffff;fill-opacity:1;fill-rule:nonzero;stroke:none"
             d="m 0,0 c -0.47,0 -0.851,0.381 -0.851,0.851 v 1.883 h -1.882 c -0.47,0 -0.852,0.38 -0.852,0.851 0,0.47 0.382,0.851 0.852,0.851 H 0 c 0.471,0 0.852,-0.381 0.852,-0.851 V 0.851 C 0.852,0.381 0.471,0 0,0" /></g><g
           transform="translate(68.0841,95.6502)"
           id="g236"><path
             id="path238"
             style="fill:#ffffff;fill-opacity:1;fill-rule:nonzero;stroke:none"
             d="m 0,0 h -5.046 c -0.47,0 -0.85,0.38 -0.85,0.851 0,0.469 0.38,0.85 0.85,0.85 H 0 C 0.471,1.701 0.852,1.32 0.852,0.851 0.852,0.38 0.471,0 0,0 M 12.335,0 H 7.289 c -0.47,0 -0.851,0.38 -0.851,0.851 0,0.469 0.381,0.85 0.851,0.85 h 5.046 c 0.471,0 0.852,-0.381 0.852,-0.85 C 13.187,0.38 12.806,0 12.335,0 m 12.334,0 h -5.046 c -0.47,0 -0.851,0.38 -0.851,0.851 0,0.469 0.381,0.85 0.851,0.85 h 5.046 c 0.471,0 0.852,-0.381 0.852,-0.85 C 25.521,0.38 25.14,0 24.669,0 m 12.334,0 h -5.046 c -0.47,0 -0.851,0.38 -0.851,0.851 0,0.469 0.381,0.85 0.851,0.85 h 5.046 c 0.471,0 0.851,-0.381 0.851,-0.85 C 37.854,0.38 37.474,0 37.003,0 m 12.334,0 h -5.046 c -0.47,0 -0.851,0.38 -0.851,0.851 0,0.469 0.381,0.85 0.851,0.85 h 5.046 c 0.471,0 0.851,-0.381 0.851,-0.85 C 50.188,0.38 49.808,0 49.337,0 m 12.335,0 h -5.047 c -0.47,0 -0.851,0.38 -0.851,0.851 0,0.469 0.381,0.85 0.851,0.85 h 5.047 c 0.47,0 0.849,-0.381 0.849,-0.85 C 62.521,0.38 62.142,0 61.672,0" /></g><g
           transform="translate(53.0177,92.9158)"
           id="g240"><path
             id="path242"
             style="fill:#ffffff;fill-opacity:1;fill-rule:nonzero;stroke:none"
             d="m 0,0 c -0.472,0 -0.853,0.381 -0.853,0.851 v 2.734 c 0,0.47 0.381,0.851 0.853,0.851 h 2.732 c 0.47,0 0.852,-0.381 0.852,-0.851 0,-0.471 -0.382,-0.851 -0.852,-0.851 H 0.851 V 0.851 C 0.851,0.381 0.47,0 0,0" /></g><g
           transform="translate(53.0177,78.1658)"
           id="g244"><path
             id="path246"
             style="fill:#ffffff;fill-opacity:1;fill-rule:nonzero;stroke:none"
             d="m 0,0 c -0.472,0 -0.853,0.381 -0.853,0.851 v 6.034 c 0,0.469 0.381,0.85 0.853,0.85 0.47,0 0.851,-0.381 0.851,-0.85 V 0.851 C 0.851,0.381 0.47,0 0,0 m 0,-14.75 c -0.472,0 -0.853,0.381 -0.853,0.852 v 6.033 c 0,0.469 0.381,0.85 0.853,0.85 0.47,0 0.851,-0.381 0.851,-0.85 v -6.033 C 0.851,-14.369 0.47,-14.75 0,-14.75 m 0,-14.749 c -0.472,0 -0.853,0.381 -0.853,0.851 v 6.034 c 0,0.469 0.381,0.85 0.853,0.85 0.47,0 0.851,-0.381 0.851,-0.85 v -6.034 c 0,-0.47 -0.381,-0.851 -0.851,-0.851" /></g><g
           transform="translate(104.5098,45.3885)"
           id="g248"><path
             id="path250"
             style="fill:#ffffff;fill-opacity:1;fill-rule:nonzero;stroke:none"
             d="M 0,0 C -0.219,0 -0.437,0.083 -0.603,0.249 L -29.984,29.632 -50.893,8.725 c -0.332,-0.332 -0.87,-0.332 -1.202,0 -0.333,0.332 -0.333,0.871 0,1.203 l 21.508,21.508 c 0.332,0.333 0.871,0.333 1.203,0 L 0.602,1.452 C 0.934,1.119 0.934,0.581 0.602,0.249 0.435,0.083 0.218,0 0,0" /></g><g
           transform="translate(139.169,54.5935)"
           id="g252"><path
             id="path254"
             style="fill:#ffffff;fill-opacity:1;fill-rule:nonzero;stroke:none"
             d="M 0,0 C -0.146,0 -0.296,0.038 -0.432,0.118 L -22.854,13.355 -43.934,1.446 c -0.409,-0.23 -0.926,-0.087 -1.159,0.323 -0.229,0.409 -0.087,0.927 0.322,1.159 l 21.509,12.151 c 0.266,0.15 0.589,0.147 0.852,-0.008 L 0.435,1.583 C 0.839,1.344 0.974,0.822 0.733,0.418 0.575,0.149 0.291,0 0,0" /></g><g
           transform="translate(99.1925,85.0935)"
           id="g256"><path
             id="path258"
             style="fill:#ffffff;fill-opacity:1;fill-rule:nonzero;stroke:none"
             d="m 0,0 c -1.943,0 -3.523,-1.581 -3.523,-3.524 0,-1.943 1.58,-3.524 3.523,-3.524 1.942,0 3.523,1.581 3.523,3.524 C 3.523,-1.581 1.942,0 0,0 m 0,-8.749 c -2.882,0 -5.226,2.344 -5.226,5.225 0,2.881 2.344,5.225 5.226,5.225 2.882,0 5.226,-2.344 5.226,-5.225 0,-2.881 -2.344,-5.225 -5.226,-5.225" /></g><g
           transform="translate(27.8887,135.8865)"
           id="g260"><path
             id="path262"
             style="fill:#ffffff;fill-opacity:1;fill-rule:nonzero;stroke:none"
             d="m 0,0 h -1.459 c -0.471,0 -0.852,0.381 -0.852,0.851 0,0.469 0.381,0.85 0.852,0.85 H 0 C 0.47,1.701 0.851,1.32 0.851,0.851 0.851,0.381 0.47,0 0,0" /></g><g
           transform="translate(36.7589,135.8865)"
           id="g264"><path
             id="path266"
             style="fill:#ffffff;fill-opacity:1;fill-rule:nonzero;stroke:none"
             d="m 0,0 h -3.159 c -0.471,0 -0.852,0.381 -0.852,0.851 0,0.469 0.381,0.85 0.852,0.85 H 0 C 0.47,1.701 0.851,1.32 0.851,0.851 0.851,0.381 0.47,0 0,0 M 8.748,0 H 5.59 C 5.119,0 4.738,0.381 4.738,0.851 c 0,0.469 0.381,0.85 0.852,0.85 H 8.748 C 9.219,1.701 9.6,1.32 9.6,0.851 9.6,0.381 9.219,0 8.748,0 m 8.749,0 h -3.158 c -0.471,0 -0.852,0.381 -0.852,0.851 0,0.469 0.381,0.85 0.852,0.85 h 3.158 c 0.471,0 0.852,-0.381 0.852,-0.85 C 18.349,0.381 17.968,0 17.497,0 m 8.749,0 h -3.158 c -0.471,0 -0.852,0.381 -0.852,0.851 0,0.469 0.381,0.85 0.852,0.85 h 3.158 c 0.471,0 0.852,-0.381 0.852,-0.85 C 27.098,0.381 26.717,0 26.246,0 m 8.749,0 h -3.158 c -0.471,0 -0.852,0.381 -0.852,0.851 0,0.469 0.381,0.85 0.852,0.85 h 3.158 c 0.471,0 0.852,-0.381 0.852,-0.85 C 35.847,0.381 35.466,0 34.995,0 m 8.749,0 h -3.158 c -0.471,0 -0.852,0.381 -0.852,0.851 0,0.469 0.381,0.85 0.852,0.85 h 3.158 c 0.471,0 0.852,-0.381 0.852,-0.85 C 44.596,0.381 44.215,0 43.744,0 m 8.749,0 h -3.158 c -0.471,0 -0.852,0.381 -0.852,0.851 0,0.469 0.381,0.85 0.852,0.85 h 3.158 c 0.471,0 0.852,-0.381 0.852,-0.85 C 53.345,0.381 52.964,0 52.493,0 m 8.749,0 h -3.158 c -0.471,0 -0.852,0.381 -0.852,0.851 0,0.469 0.381,0.85 0.852,0.85 h 3.158 c 0.471,0 0.852,-0.381 0.852,-0.85 C 62.094,0.381 61.713,0 61.242,0 m 8.749,0 h -3.159 c -0.47,0 -0.851,0.381 -0.851,0.851 0,0.469 0.381,0.85 0.851,0.85 h 3.159 c 0.471,0 0.852,-0.381 0.852,-0.85 C 70.843,0.381 70.462,0 69.991,0 m 8.749,0 h -3.159 c -0.47,0 -0.851,0.381 -0.851,0.851 0,0.469 0.381,0.85 0.851,0.85 h 3.159 c 0.471,0 0.852,-0.381 0.852,-0.85 C 79.592,0.381 79.211,0 78.74,0 m 8.749,0 H 84.33 c -0.47,0 -0.851,0.381 -0.851,0.851 0,0.469 0.381,0.85 0.851,0.85 h 3.159 c 0.471,0 0.852,-0.381 0.852,-0.85 C 88.341,0.381 87.96,0 87.489,0 m 8.749,0 h -3.159 c -0.47,0 -0.85,0.381 -0.85,0.851 0,0.469 0.38,0.85 0.85,0.85 h 3.159 c 0.471,0 0.852,-0.381 0.852,-0.85 C 97.09,0.381 96.709,0 96.238,0 m 8.749,0 h -3.159 c -0.47,0 -0.849,0.381 -0.849,0.851 0,0.469 0.379,0.85 0.849,0.85 h 3.159 c 0.47,0 0.852,-0.381 0.852,-0.85 0,-0.47 -0.382,-0.851 -0.852,-0.851 m 8.749,0 h -3.159 c -0.47,0 -0.849,0.381 -0.849,0.851 0,0.469 0.379,0.85 0.849,0.85 h 3.159 c 0.47,0 0.852,-0.381 0.852,-0.85 0,-0.47 -0.382,-0.851 -0.852,-0.851 m 8.749,0 h -3.159 c -0.47,0 -0.849,0.381 -0.849,0.851 0,0.469 0.379,0.85 0.849,0.85 h 3.159 c 0.47,0 0.852,-0.381 0.852,-0.85 0,-0.47 -0.382,-0.851 -0.852,-0.851" /></g><g
           transform="translate(166.5352,135.8865)"
           id="g268"><path
             id="path270"
             style="fill:#ffffff;fill-opacity:1;fill-rule:nonzero;stroke:none"
             d="m 0,0 h -1.578 c -0.471,0 -0.852,0.381 -0.852,0.851 0,0.469 0.381,0.85 0.852,0.85 H 0 C 0.471,1.701 0.852,1.32 0.852,0.851 0.852,0.381 0.471,0 0,0" /></g><g
           transform="translate(96.422,133.8211)"
           id="g272"><path
             id="path274"
             style="fill:#ffffff;fill-opacity:1;fill-rule:nonzero;stroke:none"
             d="M 0,0 C -0.47,0 -0.851,0.381 -0.851,0.851 V 2.43 c 0,0.469 0.381,0.85 0.851,0.85 0.471,0 0.852,-0.381 0.852,-0.85 V 0.851 C 0.852,0.381 0.471,0 0,0" /></g><g
           transform="translate(96.422,125.6795)"
           id="g276"><path
             id="path278"
             style="fill:#ffffff;fill-opacity:1;fill-rule:nonzero;stroke:none"
             d="m 0,0 c -0.47,0 -0.851,0.381 -0.851,0.851 v 2.916 c 0,0.469 0.381,0.85 0.851,0.85 0.471,0 0.852,-0.381 0.852,-0.85 V 0.851 C 0.852,0.381 0.471,0 0,0 m 0,-8.263 c -0.47,0 -0.851,0.381 -0.851,0.851 v 2.916 c 0,0.47 0.381,0.85 0.851,0.85 0.471,0 0.852,-0.38 0.852,-0.85 V -7.412 C 0.852,-7.882 0.471,-8.263 0,-8.263 m 0,-8.263 c -0.47,0 -0.851,0.38 -0.851,0.85 v 2.917 c 0,0.47 0.381,0.851 0.851,0.851 0.471,0 0.852,-0.381 0.852,-0.851 v -2.917 c 0,-0.47 -0.381,-0.85 -0.852,-0.85" /></g><g
           transform="translate(96.422,102.1053)"
           id="g280"><path
             id="path282"
             style="fill:#ffffff;fill-opacity:1;fill-rule:nonzero;stroke:none"
             d="m 0,0 c -0.47,0 -0.851,0.381 -0.851,0.851 v 1.458 c 0,0.47 0.381,0.851 0.851,0.851 0.471,0 0.852,-0.381 0.852,-0.851 V 0.851 C 0.852,0.381 0.471,0 0,0" /></g></g></g></g></svg>