<?xml version="1.0" encoding="utf-8"?>
<!-- Generator: Adobe Illustrator 23.0.1, SVG Export Plug-In . SVG Version: 6.00 Build 0)  -->
<svg version="1.1" id="Capa_1" xmlns="http://www.w3.org/2000/svg" xmlns:xlink="http://www.w3.org/1999/xlink" x="0px" y="0px"
	 viewBox="0 0 512 512" style="enable-background:new 0 0 512 512;" xml:space="preserve">
<style type="text/css">
	.st0{fill:#00A6EB;}
</style>
<g>
	<g id="thumb-up">
		<path class="st0" d="M0,488.7h93.1V209.5H0V488.7z M512,232.7c0-25.6-20.9-46.5-46.5-46.5H318.8l23.3-107.1c0-2.3,0-4.7,0-7
			c0-9.3-4.7-18.6-9.3-25.6l-25.6-23.3L153.6,176.9c-9.3,7-14,18.6-14,32.6v232.7c0,25.6,20.9,46.5,46.5,46.5h209.5
			c18.6,0,34.9-11.6,41.9-27.9l69.8-165.2c2.3-4.7,2.3-11.6,2.3-16.3v-46.5L512,232.7C512,235.1,512,232.7,512,232.7z"/>
	</g>
</g>
</svg>
