<?xml version="1.0" encoding="UTF-8" standalone="no"?>
<svg
   xmlns:dc="http://purl.org/dc/elements/1.1/"
   xmlns:cc="http://creativecommons.org/ns#"
   xmlns:rdf="http://www.w3.org/1999/02/22-rdf-syntax-ns#"
   xmlns:svg="http://www.w3.org/2000/svg"
   xmlns="http://www.w3.org/2000/svg"
   viewBox="0 0 340.15732 172.58267"
   height="172.58267"
   width="340.15732"
   xml:space="preserve"
   id="svg2"
   version="1.1"><metadata
     id="metadata8"><rdf:RDF><cc:Work
         rdf:about=""><dc:format>image/svg+xml</dc:format><dc:type
           rdf:resource="http://purl.org/dc/dcmitype/StillImage" /></cc:Work></rdf:RDF></metadata><defs
     id="defs6"><clipPath
       id="clipPath18"
       clipPathUnits="userSpaceOnUse"><path
         id="path16"
         d="M 0,129.437 H 255.118 V 0 H 0 Z" /></clipPath></defs><g
     transform="matrix(1.3333333,0,0,-1.3333333,0,172.58267)"
     id="g10"><g
       id="g12"><g
         clip-path="url(#clipPath18)"
         id="g14"><g
           transform="translate(53.7841,82.8638)"
           id="g20"><path
             id="path22"
             style="fill:#002041;fill-opacity:1;fill-rule:nonzero;stroke:none"
             d="m 0,0 c 0,-11.584 -6.029,-17.023 -15.368,-17.023 -9.22,0 -15.247,5.675 -15.247,17.614 V 46.448 L -53.784,23.279 V 0.119 c 0,-25.889 14.776,-37.827 38.18,-37.827 23.524,0 38.773,11.821 38.773,38.416 V 46.573 H 0 Z m 178.521,16.312 c 0,-6.5 -5.084,-10.875 -13.122,-10.875 h -10.993 v 21.869 h 10.875 c 8.156,0 13.24,-3.664 13.24,-10.757 z m -11.466,30.261 h -35.58 V -35.81 l 22.931,22.932 v 0.348 h 11.467 c 20.449,0 35.461,10.283 35.461,29.907 v 0.236 c 0,18.204 -13.476,28.96 -34.279,28.96 m -127.382,0 V -36.172 H 62.605 V -4.729 46.573 Z M 92.039,15.604 H 82.938 L 62.605,-4.729 h 29.434 v -31.443 h 22.932 V 46.573 H 92.039 Z" /></g><g
           transform="translate(5.603,20.2759)"
           id="g24"><path
             id="path26"
             style="fill:#00a6eb;fill-opacity:1;fill-rule:nonzero;stroke:none"
             d="m 0,0 v -17.579 h 5.204 c 5.616,0 9.201,3.808 9.201,8.725 v 0.063 C 14.405,-3.871 10.82,0 5.204,0 Z m -2.507,2.316 h 7.711 c 6.981,0 11.803,-4.792 11.803,-11.043 v -0.064 c 0,-6.249 -4.822,-11.105 -11.803,-11.105 h -7.711 z" /></g><path
           id="path28"
           style="fill:#00a6eb;fill-opacity:1;fill-rule:nonzero;stroke:none"
           d="M 48.473,22.592 H 50.98 V 0.38 h -2.507 z" /><g
           transform="translate(76.8432,11.4224)"
           id="g30"><path
             id="path32"
             style="fill:#00a6eb;fill-opacity:1;fill-rule:nonzero;stroke:none"
             d="m 0,0 v 0.062 c 0,6.093 4.474,11.488 11.137,11.488 3.744,0 6.059,-1.078 8.282,-2.95 L 17.8,6.696 C 16.087,8.187 14.182,9.233 11.039,9.233 6.123,9.233 2.602,5.077 2.602,0.127 V 0.062 c 0,-5.297 3.392,-9.232 8.789,-9.232 2.537,0 4.885,0.983 6.409,2.222 v 5.521 h -6.761 v 2.252 h 9.171 v -8.853 c -2.062,-1.84 -5.17,-3.395 -8.914,-3.395 C 4.315,-11.423 0,-6.346 0,0" /></g><path
           id="path34"
           style="fill:#00a6eb;fill-opacity:1;fill-rule:nonzero;stroke:none"
           d="m 123.264,22.592 h 2.507 V 0.38 h -2.507 z" /><g
           transform="translate(158.4902,20.2759)"
           id="g36"><path
             id="path38"
             style="fill:#00a6eb;fill-opacity:1;fill-rule:nonzero;stroke:none"
             d="M 0,0 H -7.457 V 2.316 H 9.995 V 0 H 2.538 V -19.896 H 0 Z" /></g><g
           transform="translate(205.0742,8.5357)"
           id="g40"><path
             id="path42"
             style="fill:#00a6eb;fill-opacity:1;fill-rule:nonzero;stroke:none"
             d="M 0,0 -5.045,11.296 -10.124,0 Z m -6.187,14.215 h 2.348 L 6.281,-8.155 H 3.585 l -2.603,5.871 h -12.089 l -2.632,-5.871 h -2.572 z" /></g><g
           transform="translate(236.0761,22.5923)"
           id="g44"><path
             id="path46"
             style="fill:#00a6eb;fill-opacity:1;fill-rule:nonzero;stroke:none"
             d="m 0,0 h 2.508 v -19.896 h 12.499 v -2.316 H 0 Z" /></g></g></g></g></svg>