<?xml version="1.0" encoding="UTF-8" standalone="no"?>
<svg
   xmlns:dc="http://purl.org/dc/elements/1.1/"
   xmlns:cc="http://creativecommons.org/ns#"
   xmlns:rdf="http://www.w3.org/1999/02/22-rdf-syntax-ns#"
   xmlns:svg="http://www.w3.org/2000/svg"
   xmlns="http://www.w3.org/2000/svg"
   viewBox="0 0 308.68533 195.03067"
   height="195.03067"
   width="308.68533"
   xml:space="preserve"
   id="svg2"
   version="1.1"><metadata
     id="metadata8"><rdf:RDF><cc:Work
         rdf:about=""><dc:format>image/svg+xml</dc:format><dc:type
           rdf:resource="http://purl.org/dc/dcmitype/StillImage" /></cc:Work></rdf:RDF></metadata><defs
     id="defs6"><clipPath
       id="clipPath18"
       clipPathUnits="userSpaceOnUse"><path
         id="path16"
         d="M 0,146.273 H 231.514 V 0 H 0 Z" /></clipPath><clipPath
       id="clipPath30"
       clipPathUnits="userSpaceOnUse"><path
         id="path28"
         d="m 117.036,51.9269 h 6.297 v -6.297 h -6.297 z" /></clipPath><clipPath
       id="clipPath42"
       clipPathUnits="userSpaceOnUse"><path
         id="path40"
         d="m 92.8716,51.9269 h 6.297 v -6.297 h -6.297 z" /></clipPath><clipPath
       id="clipPath54"
       clipPathUnits="userSpaceOnUse"><path
         id="path52"
         d="m 186.814,59.6589 h 20.275 v -21.761 h -20.275 z" /></clipPath></defs><g
     transform="matrix(1.3333333,0,0,-1.3333333,0,195.03067)"
     id="g10"><g
       id="g12"><g
         clip-path="url(#clipPath18)"
         id="g14"><g
           transform="translate(144.6887,46.7168)"
           id="g20"><path
             id="path22"
             style="fill:#ffffff;fill-opacity:1;fill-rule:nonzero;stroke:none"
             d="m 0,0 c -1.137,0 -2.062,0.925 -2.062,2.062 0,1.136 0.925,2.061 2.062,2.061 1.137,0 2.062,-0.925 2.062,-2.061 C 2.062,0.925 1.137,0 0,0 m 0,6.297 c -2.335,0 -4.235,-1.9 -4.235,-4.235 0,-2.336 1.9,-4.236 4.235,-4.236 2.336,0 4.235,1.9 4.235,4.236 0,2.335 -1.899,4.235 -4.235,4.235" /></g><g
           id="g24"><g
             id="g26" /><g
             id="g34"><g
               style="opacity:0.5"
               id="g32"
               clip-path="url(#clipPath30)" /></g></g><g
           id="g36"><g
             id="g38" /><g
             id="g46"><g
               style="opacity:0.5"
               id="g44"
               clip-path="url(#clipPath42)" /></g></g><g
           id="g48"><g
             id="g50" /><g
             id="g58"><g
               style="opacity:0.5"
               id="g56"
               clip-path="url(#clipPath54)" /></g></g><path
           id="path60"
           style="fill:#ffffff;fill-opacity:1;fill-rule:nonzero;stroke:none"
           d="m 127.73,41.592 h -15.057 v 14.374 h 15.057 z m 1.087,16.547 h -17.23 c -0.601,0 -1.087,-0.486 -1.087,-1.087 V 40.505 c 0,-0.601 0.486,-1.087 1.087,-1.087 h 17.23 c 0.601,0 1.087,0.486 1.087,1.087 v 16.547 c 0,0.601 -0.486,1.087 -1.087,1.087" /><g
           transform="translate(97.3425,115.1475)"
           id="g62"><path
             id="path64"
             style="fill:#ffffff;fill-opacity:1;fill-rule:nonzero;stroke:none"
             d="m 0,0 c 0,0.6 -0.487,1.086 -1.087,1.086 -0.6,0 -1.087,-0.486 -1.087,-1.086 0,-2.522 0.391,-5.03 1.165,-7.475 h -9.355 c -0.6,0 -1.086,-0.486 -1.086,-1.087 0,-0.6 0.486,-1.086 1.086,-1.086 H 0.522 c 0.358,0 0.693,0.176 0.895,0.471 0.203,0.295 0.248,0.671 0.12,1.005 C 0.517,-5.516 0,-2.766 0,0" /></g><g
           transform="translate(120.1848,96.9834)"
           id="g66"><path
             id="path68"
             style="fill:#ffffff;fill-opacity:1;fill-rule:nonzero;stroke:none"
             d="m 0,0 c -0.601,0 -1.087,-0.486 -1.087,-1.086 v -37.95 c 0,-0.6 0.486,-1.087 1.087,-1.087 0.6,0 1.087,0.487 1.087,1.087 v 37.95 C 1.087,-0.486 0.6,0 0,0" /></g><g
           transform="translate(120.2014,97.2749)"
           id="g70"><path
             id="path72"
             style="fill:#ffffff;fill-opacity:1;fill-rule:nonzero;stroke:none"
             d="m 0,0 c -9.842,0 -17.849,8.007 -17.849,17.849 0,9.842 8.007,17.849 17.849,17.849 9.842,0 17.85,-8.007 17.85,-17.849 C 17.85,8.007 9.842,0 0,0 m 0,37.872 c -11.041,0 -20.022,-8.982 -20.022,-20.023 0,-11.041 8.981,-20.023 20.022,-20.023 11.041,0 20.022,8.982 20.022,20.023 0,11.041 -8.981,20.023 -20.022,20.023" /></g><g
           transform="translate(128.6057,119.8066)"
           id="g74"><path
             id="path76"
             style="fill:#ffffff;fill-opacity:1;fill-rule:nonzero;stroke:none"
             d="m 0,0 c -0.524,0 -1.058,-0.056 -1.582,-0.166 -0.588,-0.124 -0.964,-0.7 -0.84,-1.287 0.123,-0.588 0.699,-0.964 1.286,-0.84 0.379,0.079 0.761,0.119 1.136,0.119 3.029,0 5.493,-2.462 5.493,-5.488 0,-3.024 -2.464,-5.484 -5.493,-5.484 h -17.135 c -2.849,0 -5.167,2.314 -5.167,5.158 0,2.844 2.318,5.158 5.167,5.158 2.85,0 5.168,-2.318 5.168,-5.168 0,-0.6 0.487,-1.086 1.087,-1.086 0.601,0 1.087,0.486 1.087,1.086 0,4.048 -3.293,7.342 -7.342,7.342 -4.047,0 -7.341,-3.289 -7.341,-7.332 0,-4.043 3.294,-7.332 7.341,-7.332 H 0 c 4.228,0 7.667,3.435 7.667,7.658 C 7.667,-3.438 4.228,0 0,0" /></g><g
           transform="translate(118.4504,125.7798)"
           id="g78"><path
             id="path80"
             style="fill:#ffffff;fill-opacity:1;fill-rule:nonzero;stroke:none"
             d="m 0,0 c -4.421,0 -8.371,-2.961 -9.606,-7.202 -0.168,-0.576 0.163,-1.18 0.739,-1.347 0.576,-0.168 1.18,0.163 1.347,0.739 0.967,3.319 4.059,5.637 7.52,5.637 4.317,0 7.831,-3.514 7.831,-7.831 0,-0.6 0.486,-1.087 1.087,-1.087 0.6,0 1.086,0.487 1.086,1.087 C 10.004,-4.488 5.517,0 0,0" /></g><g
           transform="translate(157.1848,110.7085)"
           id="g82"><path
             id="path84"
             style="fill:#ffffff;fill-opacity:1;fill-rule:nonzero;stroke:none"
             d="m 0,0 h -12.37 c 0.259,1.454 0.389,2.934 0.389,4.415 0,13.786 -11.226,25.001 -25.024,25.001 -0.6,0 -1.087,-0.486 -1.087,-1.086 0,-0.601 0.487,-1.087 1.087,-1.087 12.6,0 22.85,-10.241 22.85,-22.828 0,-1.77 -0.204,-3.538 -0.607,-5.253 -0.076,-0.324 0,-0.663 0.206,-0.924 0.206,-0.26 0.521,-0.411 0.853,-0.411 H 0 c 0.601,0 1.087,0.486 1.087,1.086 C 1.087,-0.486 0.601,0 0,0" /></g><g
           transform="translate(181.3459,116.1479)"
           id="g86"><path
             id="path88"
             style="fill:#ffffff;fill-opacity:1;fill-rule:nonzero;stroke:none"
             d="m 0,0 h -37.19 c -0.601,0 -1.087,-0.486 -1.087,-1.087 0,-0.6 0.486,-1.087 1.087,-1.087 H 0 c 0.601,0 1.087,0.487 1.087,1.087 C 1.087,-0.486 0.601,0 0,0" /></g><g
           transform="translate(164.6487,121.4609)"
           id="g90"><path
             id="path92"
             style="fill:#ffffff;fill-opacity:1;fill-rule:nonzero;stroke:none"
             d="m 0,0 h -20.872 c -0.601,0 -1.087,-0.487 -1.087,-1.087 0,-0.6 0.486,-1.087 1.087,-1.087 H 0 c 0.6,0 1.087,0.487 1.087,1.087 C 1.087,-0.487 0.6,0 0,0" /></g><g
           transform="translate(96.3396,113.6182)"
           id="g94"><path
             id="path96"
             style="fill:#ffffff;fill-opacity:1;fill-rule:nonzero;stroke:none"
             d="m 0,0 h -19.86 c -0.6,0 -1.087,-0.487 -1.087,-1.087 0,-0.6 0.487,-1.087 1.087,-1.087 H 0 c 0.601,0 1.087,0.487 1.087,1.087 C 1.087,-0.487 0.601,0 0,0" /></g><g
           transform="translate(181.1565,39.0479)"
           id="g98"><path
             id="path100"
             style="fill:#ffffff;fill-opacity:1;fill-rule:nonzero;stroke:none"
             d="m 0,0 c -0.601,0 -1.087,-0.487 -1.087,-1.087 v -26.806 h -119.77 v 26.427 c 0,0.6 -0.487,1.087 -1.087,1.087 -0.6,0 -1.087,-0.487 -1.087,-1.087 v -27.513 c 0,-0.601 0.487,-1.087 1.087,-1.087 H 0 c 0.601,0 1.087,0.486 1.087,1.087 V -1.087 C 1.087,-0.487 0.601,0 0,0" /></g><g
           transform="translate(173.5569,90.4688)"
           id="g102"><path
             id="path104"
             style="fill:#ffffff;fill-opacity:1;fill-rule:nonzero;stroke:none"
             d="m 0,0 h -106.711 c -4.809,0 -8.72,-3.895 -8.72,-8.682 v -21.815 c 0,-0.601 0.487,-1.087 1.087,-1.087 0.6,0 1.087,0.486 1.087,1.087 v 21.815 c 0,3.589 2.936,6.509 6.546,6.509 L 0,-2.173 c 3.591,0 6.513,-2.92 6.513,-6.509 v -21.815 c 0,-0.601 0.486,-1.087 1.087,-1.087 0.6,0 1.087,0.486 1.087,1.087 V -8.682 C 8.687,-3.895 4.789,0 0,0" /></g><g
           transform="translate(177.9309,49.8633)"
           id="g106"><path
             id="path108"
             style="fill:#ffffff;fill-opacity:1;fill-rule:nonzero;stroke:none"
             d="m 0,0 h -24.414 c -0.601,0 -1.087,-0.487 -1.087,-1.087 0,-0.6 0.486,-1.087 1.087,-1.087 H 0 c 0.6,0 1.087,0.487 1.087,1.087 C 1.087,-0.487 0.6,0 0,0" /></g><g
           transform="translate(196.926,30.9292)"
           id="g110"><path
             id="path112"
             style="fill:#ffffff;fill-opacity:1;fill-rule:nonzero;stroke:none"
             d="m 0,0 c -9.843,0 -17.85,8.007 -17.85,17.849 0,9.842 8.007,17.849 17.85,17.849 9.842,0 17.849,-8.007 17.849,-17.849 C 17.849,8.007 9.842,0 0,0 m 0,37.872 c -11.041,0 -20.023,-8.982 -20.023,-20.023 0,-11.04 8.982,-20.023 20.023,-20.023 11.04,0 20.022,8.983 20.022,20.023 C 20.022,28.89 11.04,37.872 0,37.872" /></g><g
           transform="translate(207.0764,58.334)"
           id="g114"><path
             id="path116"
             style="fill:#ffffff;fill-opacity:1;fill-rule:nonzero;stroke:none"
             d="m 0,0 c -0.601,0 -1.087,-0.487 -1.087,-1.087 v -5.941 c 0,-0.6 0.486,-1.087 1.087,-1.087 0.6,0 1.087,0.487 1.087,1.087 v 5.941 C 1.087,-0.487 0.6,0 0,0" /></g><g
           transform="translate(186.8488,52.583)"
           id="g118"><path
             id="path120"
             style="fill:#ffffff;fill-opacity:1;fill-rule:nonzero;stroke:none"
             d="m 0,0 c -0.601,0 -1.087,-0.487 -1.087,-1.087 v -5.945 c 0,-0.6 0.486,-1.087 1.087,-1.087 0.601,0 1.087,0.487 1.087,1.087 v 5.945 C 1.087,-0.487 0.601,0 0,0" /></g><g
           transform="translate(206.051,56.957)"
           id="g122"><path
             id="path124"
             style="fill:#ffffff;fill-opacity:1;fill-rule:nonzero;stroke:none"
             d="m 0,0 h 0.001 z m -9.137,-1.033 c -4.792,0 -7.792,0.78 -8.73,1.324 0.938,0.543 3.939,1.324 8.73,1.324 4.824,0 7.863,-0.777 8.838,-1.324 -0.975,-0.547 -4.014,-1.324 -8.838,-1.324 m 0,4.821 c -1.857,0 -11.124,-0.168 -11.124,-3.497 0,-3.329 9.267,-3.498 11.124,-3.498 1.879,0 11.25,0.169 11.25,3.498 0,3.329 -9.371,3.497 -11.25,3.497" /></g><g
           transform="translate(205.9895,45.9551)"
           id="g126"><path
             id="path128"
             style="fill:#ffffff;fill-opacity:1;fill-rule:nonzero;stroke:none"
             d="m 0,0 v 0.001 z m 0,-5.48 c -0.603,-0.541 -3.771,-1.49 -9.12,-1.49 -5.291,0 -8.411,0.946 -8.994,1.482 v 3.218 c 2.868,-1.147 7.706,-1.227 8.994,-1.227 1.307,0 6.222,0.08 9.12,1.237 z M -18.114,10e-4 V 0 Z M 1.087,1.087 C 0.548,1.087 0.101,0.695 0.015,0.18 -0.549,-0.358 -3.726,-1.324 -9.12,-1.324 c -5.333,0 -8.461,0.961 -9.007,1.495 -0.082,0.519 -0.531,0.916 -1.074,0.916 -0.6,0 -1.087,-0.487 -1.087,-1.087 v -5.646 c 0,-3.329 9.303,-3.498 11.168,-3.498 1.886,0 11.294,0.169 11.294,3.498 V 0 c 0,0.6 -0.487,1.087 -1.087,1.087" /></g><g
           transform="translate(207.0764,52.6865)"
           id="g130"><path
             id="path132"
             style="fill:#ffffff;fill-opacity:1;fill-rule:nonzero;stroke:none"
             d="m 0,0 c -0.539,0 -0.986,-0.393 -1.072,-0.908 -0.564,-0.539 -3.742,-1.51 -9.137,-1.51 -5.415,0 -8.493,1.003 -8.979,1.557 l 0.006,5.512 c 0,0.6 -0.486,1.069 -1.086,1.069 h -10e-4 c -0.599,0 -1.087,-0.467 -1.087,-1.067 l -0.005,-5.609 c 0,-1.935 2.823,-2.641 3.751,-2.873 1.954,-0.488 4.583,-0.757 7.401,-0.757 1.307,0 6.224,0.081 9.122,1.238 v -3.395 c 0,-0.6 0.486,-1.087 1.087,-1.087 0.6,0 1.087,0.487 1.087,1.087 v 5.658 C 1.087,-0.485 0.6,0 0,0" /></g><g
           transform="translate(223.8488,55.0498)"
           id="g134"><path
             id="path136"
             style="fill:#ffffff;fill-opacity:1;fill-rule:nonzero;stroke:none"
             d="m 0,0 h -2.656 c -0.601,0 -1.087,-0.487 -1.087,-1.087 0,-0.6 0.486,-1.087 1.087,-1.087 H 0 c 0.601,0 1.087,0.487 1.087,1.087 C 1.087,-0.487 0.601,0 0,0" /></g><g
           transform="translate(230.427,49.8633)"
           id="g138"><path
             id="path140"
             style="fill:#ffffff;fill-opacity:1;fill-rule:nonzero;stroke:none"
             d="m 0,0 h -8.458 c -0.266,6.303 -2.835,12.18 -7.305,16.652 -4.722,4.725 -11.012,7.327 -17.71,7.327 -0.6,0 -1.087,-0.486 -1.087,-1.086 0,-0.601 0.487,-1.087 1.087,-1.087 12.607,0 22.864,-10.27 22.864,-22.893 0,-0.6 0.487,-1.087 1.087,-1.087 H 0 c 0.601,0 1.087,0.487 1.087,1.087 C 1.087,-0.487 0.601,0 0,0" /></g><g
           transform="translate(86.9787,49.8633)"
           id="g142"><path
             id="path144"
             style="fill:#ffffff;fill-opacity:1;fill-rule:nonzero;stroke:none"
             d="m 0,0 h -24.541 c -0.6,0 -1.086,-0.487 -1.086,-1.087 0,-0.6 0.486,-1.087 1.086,-1.087 H 0 c 0.601,0 1.087,0.487 1.087,1.087 C 1.087,-0.487 0.601,0 0,0" /></g><g
           transform="translate(42.8205,30.1719)"
           id="g146"><path
             id="path148"
             style="fill:#ffffff;fill-opacity:1;fill-rule:nonzero;stroke:none"
             d="m 0,0 c -10.204,0 -18.505,8.301 -18.505,18.505 0,10.203 8.301,18.504 18.505,18.504 10.204,0 18.504,-8.301 18.504,-18.504 C 18.504,8.301 10.204,0 0,0 m 0,39.183 c -11.402,0 -20.679,-9.276 -20.679,-20.678 0,-11.402 9.277,-20.679 20.679,-20.679 11.402,0 20.678,9.277 20.678,20.679 0,11.402 -9.276,20.678 -20.678,20.678" /></g><g
           transform="translate(51.0417,54.3779)"
           id="g150"><path
             id="path152"
             style="fill:#ffffff;fill-opacity:1;fill-rule:nonzero;stroke:none"
             d="m 0,0 c 0,-7.331 0.001,-11.438 -8.947,-16.958 -9.045,5.809 -8.984,9.579 -8.866,16.94 10e-4,0.006 10e-4,0.012 10e-4,0.018 V 3.407 C -14.999,2.181 -12.049,2.39 -9.016,4.032 -5.988,2.403 -2.911,2.205 0,3.437 Z M 1.613,6.182 C 1.267,6.373 0.844,6.361 0.509,6.15 -2.394,4.326 -5.325,4.346 -8.452,6.211 -8.62,6.311 -8.813,6.364 -9.008,6.364 h -0.017 c -0.196,0 -0.388,-0.053 -0.557,-0.153 -3.106,-1.854 -5.96,-1.877 -8.723,-0.071 -0.334,0.218 -0.761,0.236 -1.112,0.046 -0.351,-0.189 -0.569,-0.557 -0.569,-0.956 V 0.009 c -0.069,-4.26 -0.014,-7.273 1.312,-10.207 1.392,-3.082 4.153,-5.813 8.936,-8.834 0.198,-0.192 0.467,-0.306 0.757,-0.306 h 0.043 c 0.281,0 0.542,0.108 0.739,0.289 C 2.175,-12.773 2.174,-7.681 2.174,0 v 5.23 c 0,0.396 -0.215,0.76 -0.561,0.952" /></g><g
           transform="translate(18.1643,55.4292)"
           id="g154"><path
             id="path156"
             style="fill:#ffffff;fill-opacity:1;fill-rule:nonzero;stroke:none"
             d="m 0,0 h -2.783 c -0.6,0 -1.087,-0.487 -1.087,-1.087 0,-0.6 0.487,-1.087 1.087,-1.087 H 0 c 0.6,0 1.087,0.487 1.087,1.087 C 1.087,-0.487 0.6,0 0,0" /></g><g
           transform="translate(42.3611,74.2222)"
           id="g158"><path
             id="path160"
             style="fill:#ffffff;fill-opacity:1;fill-rule:nonzero;stroke:none"
             d="m 0,0 c -6.7,0 -12.997,-2.602 -17.73,-7.327 -4.483,-4.473 -7.061,-10.352 -7.327,-16.652 h -8.374 c -0.6,0 -1.087,-0.487 -1.087,-1.087 0,-0.601 0.487,-1.087 1.087,-1.087 h 9.438 c 0.6,0 1.087,0.486 1.087,1.087 0,12.623 10.275,22.892 22.906,22.892 0.6,0 1.087,0.487 1.087,1.087 C 1.087,-0.487 0.6,0 0,0" /></g><g
           transform="translate(29.403,29.4194)"
           id="g162"><path
             id="path164"
             style="fill:#ffffff;fill-opacity:1;fill-rule:nonzero;stroke:none"
             d="m 0,0 c -5.295,3.704 -8.861,9.479 -9.782,15.844 -0.078,0.535 -0.536,0.931 -1.076,0.931 h -17.458 c -0.6,0 -1.087,-0.486 -1.087,-1.087 0,-0.6 0.487,-1.086 1.087,-1.086 h 16.535 c 1.207,-6.587 5.009,-12.519 10.535,-16.383 0.19,-0.133 0.407,-0.197 0.622,-0.197 0.343,0 0.681,0.162 0.892,0.464 C 0.612,-1.022 0.492,-0.344 0,0" /></g><g
           transform="translate(85.0378,67.9395)"
           id="g166"><path
             id="path168"
             style="fill:#ffffff;fill-opacity:1;fill-rule:nonzero;stroke:none"
             d="M 0,0 C -0.499,0 -0.905,0.406 -0.905,0.905 -0.905,1.404 -0.499,1.81 0,1.81 0.499,1.81 0.905,1.404 0.905,0.905 0.905,0.406 0.499,0 0,0 m 0,3.984 c -1.697,0 -3.078,-1.381 -3.078,-3.079 0,-1.697 1.381,-3.078 3.078,-3.078 1.698,0 3.079,1.381 3.079,3.078 0,1.698 -1.381,3.079 -3.079,3.079" /></g><g
           transform="translate(94.0285,67.9395)"
           id="g170"><path
             id="path172"
             style="fill:#ffffff;fill-opacity:1;fill-rule:nonzero;stroke:none"
             d="M 0,0 C -0.499,0 -0.905,0.406 -0.905,0.905 -0.905,1.404 -0.499,1.81 0,1.81 0.499,1.81 0.905,1.404 0.905,0.905 0.905,0.406 0.499,0 0,0 m 0,3.984 c -1.697,0 -3.078,-1.381 -3.078,-3.079 0,-1.697 1.381,-3.078 3.078,-3.078 1.698,0 3.079,1.381 3.079,3.078 0,1.698 -1.381,3.079 -3.079,3.079" /></g><g
           transform="translate(103.0193,67.9395)"
           id="g174"><path
             id="path176"
             style="fill:#ffffff;fill-opacity:1;fill-rule:nonzero;stroke:none"
             d="M 0,0 C -0.499,0 -0.905,0.406 -0.905,0.905 -0.905,1.404 -0.499,1.81 0,1.81 0.499,1.81 0.905,1.404 0.905,0.905 0.905,0.406 0.499,0 0,0 m 0,3.984 c -1.697,0 -3.079,-1.381 -3.079,-3.079 0,-1.697 1.382,-3.078 3.079,-3.078 1.698,0 3.079,1.381 3.079,3.078 0,1.698 -1.381,3.079 -3.079,3.079" /></g><g
           transform="translate(153.6877,75.0361)"
           id="g178"><path
             id="path180"
             style="fill:#ffffff;fill-opacity:1;fill-rule:nonzero;stroke:none"
             d="m 0,0 h -66.973 c -5.162,0 -9.361,-4.19 -9.361,-9.342 v -55.689 c 0,-0.6 0.486,-1.087 1.086,-1.087 0.601,0 1.087,0.487 1.087,1.087 v 55.689 c 0,3.953 3.224,7.169 7.188,7.169 H 0 c 3.945,0 7.154,-3.216 7.154,-7.169 v -55.689 c 0,-0.6 0.487,-1.087 1.087,-1.087 0.6,0 1.087,0.487 1.087,1.087 V -9.342 C 9.328,-4.19 5.144,0 0,0" /></g><g
           transform="translate(161.9914,64.79)"
           id="g182"><path
             id="path184"
             style="fill:#ffffff;fill-opacity:1;fill-rule:nonzero;stroke:none"
             d="m 0,0 h -83.488 c -0.6,0 -1.087,-0.487 -1.087,-1.087 0,-0.6 0.487,-1.087 1.087,-1.087 H 0 c 0.601,0 1.087,0.487 1.087,1.087 C 1.087,-0.487 0.601,0 0,0" /></g><g
           transform="translate(108.5466,74.9731)"
           id="g186"><path
             id="path188"
             style="fill:#ffffff;fill-opacity:1;fill-rule:nonzero;stroke:none"
             d="m 0,0 c -0.6,0 -1.087,-0.487 -1.087,-1.087 v -10.12 c 0,-0.6 0.487,-1.086 1.087,-1.086 0.6,0 1.087,0.486 1.087,1.086 v 10.12 C 1.087,-0.487 0.6,0 0,0" /></g><path
           id="path190"
           style="fill:#ffffff;fill-opacity:1;fill-rule:nonzero;stroke:none"
           d="M 103.285,41.641 H 88.129 v 14.271 h 15.156 z m 1.088,16.445 h -17.33 c -0.6,0 -1.087,-0.487 -1.087,-1.087 V 40.554 c 0,-0.6 0.487,-1.086 1.087,-1.086 h 17.33 c 0.599,0 1.087,0.486 1.087,1.086 v 16.445 c 0,0.6 -0.488,1.087 -1.087,1.087" /><g
           transform="translate(95.7141,46.7168)"
           id="g192"><path
             id="path194"
             style="fill:#ffffff;fill-opacity:1;fill-rule:nonzero;stroke:none"
             d="m 0,0 c -1.137,0 -2.062,0.925 -2.062,2.062 0,1.136 0.925,2.061 2.062,2.061 1.137,0 2.062,-0.925 2.062,-2.061 C 2.062,0.925 1.137,0 0,0 m 0,6.297 c -2.335,0 -4.235,-1.9 -4.235,-4.235 0,-2.336 1.9,-4.236 4.235,-4.236 2.335,0 4.235,1.9 4.235,4.236 0,2.335 -1.9,4.235 -4.235,4.235" /></g><g
           transform="translate(104.4358,35.5688)"
           id="g196"><path
             id="path198"
             style="fill:#ffffff;fill-opacity:1;fill-rule:nonzero;stroke:none"
             d="m 0,0 h -17.331 c -0.6,0 -1.086,-0.486 -1.086,-1.086 0,-0.601 0.486,-1.087 1.086,-1.087 H 0 c 0.6,0 1.086,0.486 1.086,1.087 C 1.086,-0.486 0.6,0 0,0" /></g><g
           transform="translate(104.4358,29.3706)"
           id="g200"><path
             id="path202"
             style="fill:#ffffff;fill-opacity:1;fill-rule:nonzero;stroke:none"
             d="m 0,0 h -17.331 c -0.6,0 -1.086,-0.486 -1.086,-1.087 0,-0.6 0.486,-1.086 1.086,-1.086 H 0 c 0.6,0 1.086,0.486 1.086,1.086 C 1.086,-0.486 0.6,0 0,0" /></g><g
           transform="translate(104.4358,23.4253)"
           id="g204"><path
             id="path206"
             style="fill:#ffffff;fill-opacity:1;fill-rule:nonzero;stroke:none"
             d="m 0,0 h -17.331 c -0.6,0 -1.086,-0.486 -1.086,-1.087 0,-0.6 0.486,-1.087 1.086,-1.087 H 0 c 0.6,0 1.086,0.487 1.086,1.087 C 1.086,-0.486 0.6,0 0,0" /></g><g
           transform="translate(104.4358,17.2271)"
           id="g208"><path
             id="path210"
             style="fill:#ffffff;fill-opacity:1;fill-rule:nonzero;stroke:none"
             d="m 0,0 h -17.331 c -0.6,0 -1.086,-0.487 -1.086,-1.087 0,-0.6 0.486,-1.087 1.086,-1.087 H 0 c 0.6,0 1.086,0.487 1.086,1.087 C 1.086,-0.487 0.6,0 0,0" /></g><path
           id="path212"
           style="fill:#ffffff;fill-opacity:1;fill-rule:nonzero;stroke:none"
           d="M 152.239,41.641 H 137.21 v 14.271 h 15.029 z m 1.087,16.445 h -17.202 c -0.601,0 -1.088,-0.487 -1.088,-1.087 V 40.554 c 0,-0.6 0.487,-1.086 1.088,-1.086 h 17.202 c 0.6,0 1.088,0.486 1.088,1.086 v 16.445 c 0,0.6 -0.488,1.087 -1.088,1.087" /><g
           transform="translate(153.3899,35.5688)"
           id="g214"><path
             id="path216"
             style="fill:#ffffff;fill-opacity:1;fill-rule:nonzero;stroke:none"
             d="m 0,0 h -17.33 c -0.601,0 -1.087,-0.486 -1.087,-1.086 0,-0.601 0.486,-1.087 1.087,-1.087 H 0 c 0.601,0 1.087,0.486 1.087,1.087 C 1.087,-0.486 0.601,0 0,0" /></g><g
           transform="translate(153.3899,29.3706)"
           id="g218"><path
             id="path220"
             style="fill:#ffffff;fill-opacity:1;fill-rule:nonzero;stroke:none"
             d="m 0,0 h -17.33 c -0.601,0 -1.087,-0.486 -1.087,-1.087 0,-0.6 0.486,-1.086 1.087,-1.086 H 0 c 0.601,0 1.087,0.486 1.087,1.086 C 1.087,-0.486 0.601,0 0,0" /></g><g
           transform="translate(153.3899,23.4253)"
           id="g222"><path
             id="path224"
             style="fill:#ffffff;fill-opacity:1;fill-rule:nonzero;stroke:none"
             d="m 0,0 h -17.33 c -0.601,0 -1.087,-0.486 -1.087,-1.087 0,-0.6 0.486,-1.087 1.087,-1.087 H 0 c 0.601,0 1.087,0.487 1.087,1.087 C 1.087,-0.486 0.601,0 0,0" /></g><g
           transform="translate(153.3899,17.2271)"
           id="g226"><path
             id="path228"
             style="fill:#ffffff;fill-opacity:1;fill-rule:nonzero;stroke:none"
             d="m 0,0 h -17.33 c -0.601,0 -1.087,-0.487 -1.087,-1.087 0,-0.6 0.486,-1.087 1.087,-1.087 H 0 c 0.601,0 1.087,0.487 1.087,1.087 C 1.087,-0.487 0.601,0 0,0" /></g><g
           transform="translate(120.2014,46.7168)"
           id="g230"><path
             id="path232"
             style="fill:#ffffff;fill-opacity:1;fill-rule:nonzero;stroke:none"
             d="m 0,0 c -1.137,0 -2.062,0.925 -2.062,2.062 0,1.136 0.925,2.061 2.062,2.061 1.137,0 2.062,-0.925 2.062,-2.061 C 2.062,0.925 1.137,0 0,0 m 0,6.297 c -2.335,0 -4.235,-1.9 -4.235,-4.235 0,-2.336 1.9,-4.236 4.235,-4.236 2.335,0 4.235,1.9 4.235,4.236 0,2.335 -1.9,4.235 -4.235,4.235" /></g><g
           transform="translate(128.8498,35.5688)"
           id="g234"><path
             id="path236"
             style="fill:#ffffff;fill-opacity:1;fill-rule:nonzero;stroke:none"
             d="m 0,0 h -17.33 c -0.601,0 -1.087,-0.486 -1.087,-1.086 0,-0.601 0.486,-1.087 1.087,-1.087 H 0 c 0.6,0 1.087,0.486 1.087,1.087 C 1.087,-0.486 0.6,0 0,0" /></g><g
           transform="translate(128.8498,29.3706)"
           id="g238"><path
             id="path240"
             style="fill:#ffffff;fill-opacity:1;fill-rule:nonzero;stroke:none"
             d="m 0,0 h -17.33 c -0.601,0 -1.087,-0.486 -1.087,-1.087 0,-0.6 0.486,-1.086 1.087,-1.086 H 0 c 0.6,0 1.087,0.486 1.087,1.086 C 1.087,-0.486 0.6,0 0,0" /></g><g
           transform="translate(128.8498,23.4253)"
           id="g242"><path
             id="path244"
             style="fill:#ffffff;fill-opacity:1;fill-rule:nonzero;stroke:none"
             d="m 0,0 h -17.33 c -0.601,0 -1.087,-0.486 -1.087,-1.087 0,-0.6 0.486,-1.087 1.087,-1.087 H 0 c 0.6,0 1.087,0.487 1.087,1.087 C 1.087,-0.486 0.6,0 0,0" /></g><g
           transform="translate(128.8498,17.2271)"
           id="g246"><path
             id="path248"
             style="fill:#ffffff;fill-opacity:1;fill-rule:nonzero;stroke:none"
             d="m 0,0 h -17.33 c -0.601,0 -1.087,-0.487 -1.087,-1.087 0,-0.6 0.486,-1.087 1.087,-1.087 H 0 c 0.6,0 1.087,0.487 1.087,1.087 C 1.087,-0.487 0.6,0 0,0" /></g><g
           transform="translate(183.1985,2.1738)"
           id="g250"><path
             id="path252"
             style="fill:#ffffff;fill-opacity:1;fill-rule:nonzero;stroke:none"
             d="m 0,0 h -125.995 c -3.999,0 -7.317,2.965 -7.858,6.808 H 7.858 C 7.316,2.965 3.999,0 0,0 M 9.022,9.001 C 8.95,9.001 8.88,8.995 8.812,8.981 h -143.619 c -0.068,0.014 -0.138,0.02 -0.21,0.02 -0.6,0 -1.087,-0.486 -1.087,-1.086 V 7.895 7.884 c 0.017,-5.549 4.545,-10.058 10.109,-10.058 L 0,-2.174 c 5.564,0 10.093,4.509 10.109,10.058 v 0.011 0.02 c 0,0.6 -0.486,1.086 -1.087,1.086" /></g><g
           transform="translate(133.5569,11.144)"
           id="g254"><path
             id="path256"
             style="fill:#ffffff;fill-opacity:1;fill-rule:nonzero;stroke:none"
             d="m 0,0 c -0.601,0 -1.087,-0.487 -1.087,-1.087 v -0.025 c 0,-1.543 -1.243,-2.798 -2.772,-2.798 h -18.994 c -1.528,0 -2.772,1.255 -2.772,2.81 0,0.6 -0.486,1.081 -1.087,1.081 -0.6,0 -1.087,-0.493 -1.087,-1.093 0,-2.742 2.219,-4.972 4.946,-4.972 h 18.994 c 2.727,0 4.946,2.23 4.946,4.972 v 0.025 C 1.087,-0.487 0.601,0 0,0" /></g><g
           transform="translate(68.4177,130.4111)"
           id="g258"><path
             id="path260"
             style="fill:#ffffff;fill-opacity:1;fill-rule:nonzero;stroke:none"
             d="m 0,0 c -0.877,0 -1.591,0.714 -1.591,1.591 0,0.878 0.714,1.592 1.591,1.592 0.877,0 1.591,-0.714 1.591,-1.592 C 1.591,0.714 0.877,0 0,0 m 0,5.356 c -2.076,0 -3.765,-1.689 -3.765,-3.765 0,-2.076 1.689,-3.765 3.765,-3.765 2.076,0 3.765,1.689 3.765,3.765 0,2.076 -1.689,3.765 -3.765,3.765" /></g><g
           transform="translate(207.0774,90.2578)"
           id="g262"><path
             id="path264"
             style="fill:#ffffff;fill-opacity:1;fill-rule:nonzero;stroke:none"
             d="m 0,0 c -0.877,0 -1.591,0.714 -1.591,1.591 0,0.877 0.714,1.591 1.591,1.591 0.878,0 1.592,-0.714 1.592,-1.591 C 1.592,0.714 0.878,0 0,0 m 0,5.356 c -2.075,0 -3.765,-1.689 -3.765,-3.765 0,-2.076 1.69,-3.765 3.765,-3.765 2.076,0 3.765,1.689 3.765,3.765 0,2.076 -1.689,3.765 -3.765,3.765" /></g><g
           transform="translate(172.2131,140.9165)"
           id="g266"><path
             id="path268"
             style="fill:#ffffff;fill-opacity:1;fill-rule:nonzero;stroke:none"
             d="m 0,0 c -0.877,0 -1.591,0.714 -1.591,1.591 0,0.878 0.714,1.592 1.591,1.592 0.878,0 1.592,-0.714 1.592,-1.592 C 1.592,0.714 0.878,0 0,0 m 0,5.356 c -2.075,0 -3.765,-1.689 -3.765,-3.765 0,-2.076 1.69,-3.765 3.765,-3.765 2.076,0 3.766,1.689 3.766,3.765 0,2.076 -1.69,3.765 -3.766,3.765" /></g><g
           transform="translate(29.4099,132.7095)"
           id="g270"><path
             id="path272"
             style="fill:#ffffff;fill-opacity:1;fill-rule:nonzero;stroke:none"
             d="m 0,0 -2.66,-2.66 c -0.424,-0.425 -0.424,-1.113 0,-1.537 0.212,-0.213 0.49,-0.319 0.768,-0.319 0.278,0 0.557,0.106 0.769,0.319 l 2.66,2.66 C 1.961,-1.113 1.961,-0.424 1.537,0 1.113,0.424 0.424,0.424 0,0" /></g><g
           transform="translate(28.2263,132.7095)"
           id="g274"><path
             id="path276"
             style="fill:#ffffff;fill-opacity:1;fill-rule:nonzero;stroke:none"
             d="m 0,0 c -0.424,0.424 -1.113,0.424 -1.537,0 -0.424,-0.424 -0.424,-1.113 0,-1.537 l 2.66,-2.66 c 0.212,-0.213 0.491,-0.319 0.769,-0.319 0.278,0 0.556,0.106 0.768,0.319 0.424,0.424 0.424,1.112 0,1.537 z" /></g><g
           transform="translate(217.8908,126.8906)"
           id="g278"><path
             id="path280"
             style="fill:#ffffff;fill-opacity:1;fill-rule:nonzero;stroke:none"
             d="m 0,0 -2.66,-2.661 c -0.424,-0.424 -0.424,-1.112 0,-1.536 0.213,-0.213 0.49,-0.319 0.768,-0.319 0.279,0 0.557,0.106 0.769,0.319 l 2.66,2.66 C 1.962,-1.113 1.962,-0.424 1.537,0 1.113,0.424 0.425,0.424 0,0" /></g><g
           transform="translate(216.7072,126.8906)"
           id="g282"><path
             id="path284"
             style="fill:#ffffff;fill-opacity:1;fill-rule:nonzero;stroke:none"
             d="m 0,0 c -0.424,0.424 -1.112,0.424 -1.537,0 -0.424,-0.424 -0.424,-1.113 0,-1.537 l 2.66,-2.66 c 0.213,-0.213 0.491,-0.319 0.769,-0.319 0.278,0 0.556,0.106 0.768,0.319 0.425,0.424 0.425,1.112 0,1.536 z" /></g><g
           transform="translate(193.8567,128.9146)"
           id="g286"><path
             id="path288"
             style="fill:#ffffff;fill-opacity:1;fill-rule:nonzero;stroke:none"
             d="m 0,0 -2.66,-2.66 c -0.425,-0.425 -0.425,-1.113 0,-1.537 0.212,-0.213 0.49,-0.319 0.768,-0.319 0.279,0 0.557,0.106 0.769,0.319 l 2.66,2.66 C 1.962,-1.113 1.962,-0.424 1.537,0 1.112,0.424 0.425,0.424 0,0" /></g><g
           transform="translate(192.6731,128.9146)"
           id="g290"><path
             id="path292"
             style="fill:#ffffff;fill-opacity:1;fill-rule:nonzero;stroke:none"
             d="m 0,0 c -0.425,0.424 -1.112,0.424 -1.537,0 -0.425,-0.424 -0.425,-1.113 0,-1.537 l 2.66,-2.66 c 0.212,-0.213 0.49,-0.319 0.769,-0.319 0.278,0 0.556,0.106 0.768,0.319 0.425,0.424 0.425,1.112 0,1.537 z" /></g><g
           transform="translate(32.6989,14.6875)"
           id="g294"><path
             id="path296"
             style="fill:#ffffff;fill-opacity:1;fill-rule:nonzero;stroke:none"
             d="m 0,0 -2.66,-2.661 c -0.425,-0.424 -0.425,-1.112 0,-1.536 0.212,-0.213 0.49,-0.319 0.768,-0.319 0.278,0 0.557,0.106 0.768,0.319 l 2.661,2.66 C 1.961,-1.113 1.961,-0.425 1.537,0 1.113,0.424 0.424,0.424 0,0" /></g><g
           transform="translate(31.5154,14.6875)"
           id="g298"><path
             id="path300"
             style="fill:#ffffff;fill-opacity:1;fill-rule:nonzero;stroke:none"
             d="m 0,0 c -0.425,0.424 -1.113,0.424 -1.537,0 -0.425,-0.425 -0.425,-1.113 0,-1.537 l 2.66,-2.66 c 0.212,-0.213 0.49,-0.319 0.769,-0.319 0.278,0 0.556,0.106 0.768,0.319 0.424,0.424 0.424,1.112 0,1.536 z" /></g><g
           transform="translate(217.8908,22.9097)"
           id="g302"><path
             id="path304"
             style="fill:#ffffff;fill-opacity:1;fill-rule:nonzero;stroke:none"
             d="m 0,0 -2.66,-2.66 c -0.424,-0.425 -0.424,-1.113 0,-1.537 0.213,-0.213 0.49,-0.319 0.768,-0.319 0.279,0 0.557,0.106 0.769,0.319 l 2.66,2.66 C 1.962,-1.113 1.962,-0.424 1.537,0 1.113,0.424 0.425,0.424 0,0" /></g><g
           transform="translate(216.7072,22.9097)"
           id="g306"><path
             id="path308"
             style="fill:#ffffff;fill-opacity:1;fill-rule:nonzero;stroke:none"
             d="m 0,0 c -0.424,0.424 -1.112,0.424 -1.537,0 -0.424,-0.424 -0.424,-1.113 0,-1.537 l 2.66,-2.66 c 0.213,-0.213 0.491,-0.319 0.769,-0.319 0.278,0 0.556,0.106 0.768,0.319 0.425,0.424 0.425,1.112 0,1.537 z" /></g><g
           transform="translate(23.844,97.1636)"
           id="g310"><path
             id="path312"
             style="fill:#ffffff;fill-opacity:1;fill-rule:nonzero;stroke:none"
             d="m 0,0 -2.66,-2.66 c -0.424,-0.424 -0.424,-1.113 0,-1.537 0.212,-0.213 0.49,-0.319 0.768,-0.319 0.278,0 0.557,0.106 0.769,0.319 l 2.66,2.66 C 1.961,-1.112 1.961,-0.424 1.537,0 1.113,0.424 0.424,0.424 0,0" /></g><g
           transform="translate(22.6604,97.1636)"
           id="g314"><path
             id="path316"
             style="fill:#ffffff;fill-opacity:1;fill-rule:nonzero;stroke:none"
             d="m 0,0 c -0.424,0.424 -1.113,0.424 -1.537,0 -0.424,-0.424 -0.424,-1.112 0,-1.537 l 2.66,-2.66 c 0.212,-0.213 0.491,-0.319 0.769,-0.319 0.278,0 0.556,0.106 0.768,0.319 0.424,0.424 0.424,1.113 0,1.537 z" /></g></g></g></g></svg>