<?xml version="1.0" encoding="UTF-8" standalone="no"?>
<svg
   xmlns:dc="http://purl.org/dc/elements/1.1/"
   xmlns:cc="http://creativecommons.org/ns#"
   xmlns:rdf="http://www.w3.org/1999/02/22-rdf-syntax-ns#"
   xmlns:svg="http://www.w3.org/2000/svg"
   xmlns="http://www.w3.org/2000/svg"
   viewBox="0 0 27.734533 27.734667"
   height="27.734667"
   width="27.734533"
   xml:space="preserve"
   id="svg2"
   version="1.1"><metadata
     id="metadata8"><rdf:RDF><cc:Work
         rdf:about=""><dc:format>image/svg+xml</dc:format><dc:type
           rdf:resource="http://purl.org/dc/dcmitype/StillImage" /></cc:Work></rdf:RDF></metadata><defs
     id="defs6"><clipPath
       id="clipPath18"
       clipPathUnits="userSpaceOnUse"><path
         id="path16"
         d="M 0,20.801 H 20.801 V 0 H 0 Z" /></clipPath></defs><g
     transform="matrix(1.3333333,0,0,-1.3333333,0,27.734667)"
     id="g10"><g
       id="g12"><g
         clip-path="url(#clipPath18)"
         id="g14"><g
           transform="translate(14.398,11.199)"
           id="g20"><path
             id="path22"
             style="fill:#27a4dd;fill-opacity:1;fill-rule:nonzero;stroke:none"
             d="m 0,0 h -8 l -3.199,4 c 0,0 2.403,3.204 7.199,3.204 C 0.801,7.204 3.204,4 3.204,4 Z m 2.5,9.602 h -13 c -2.152,0 -3.898,-1.746 -3.898,-3.898 v -13 c 0,-2.157 1.746,-3.903 3.898,-3.903 h 13 c 2.157,0 3.903,1.746 3.903,3.903 v 13 c 0,2.152 -1.746,3.898 -3.903,3.898" /></g><g
           transform="translate(12.4918,11.9998)"
           id="g24"><path
             id="path26"
             style="fill:#27a4dd;fill-opacity:1;fill-rule:nonzero;stroke:none"
             d="M 0,0 1.094,4.793 -2.078,0 Z" /></g></g></g></g></svg>